<?xml version="1.0" standalone="no"?><!DOCTYPE svg PUBLIC "-//W3C//DTD SVG 1.1//EN" "http://www.w3.org/Graphics/SVG/1.1/DTD/svg11.dtd" ><svg xmlns="http://www.w3.org/2000/svg"><metadata></metadata><defs><font id="MattMcInerney: Orbitron Bold: 2009" horiz-adv-x="1375"><font-face font-family="Orbitron" font-weight="700" font-stretch="normal" units-per-em="1000" panose-1="2 0 0 0 0 0 0 0 0 0" ascent="750" descent="-250" x-height="0" bbox="-187 -230 1304 969" underline-thickness="50" underline-position="-75" unicode-range="U+0020-e00c" /><missing-glyph horiz-adv-x="0"  /><glyph glyph-name=".null" unicode="" d="" /><glyph glyph-name="nonmarkingreturn" unicode="" d="" /><glyph glyph-name="space" unicode=" " d="" /><glyph glyph-name="exclam" unicode="!" d="M189 0 l-131 0 l0 131 l131 0 l0 -131 ZM58 197 l0 523 l131 0 l0 -523 l-131 0 Z" /><glyph glyph-name="quotedbl" unicode="&quot;" d="M191 719 l0 -182 l-132 0 l0 182 l132 0 ZM350 719 l0 -182 l-131 0 l0 182 l131 0 Z" /><glyph glyph-name="numbersign" unicode="#" d="M757 566 l0 -131 l-117 0 l-46 -144 l134 0 l0 -131 l-175 0 l-48 -160 l-132 0 l49 160 l-176 0 l-48 -160 l-132 0 l49 160 l-83 0 l0 131 l123 0 l46 144 l-140 0 l0 131 l182 0 l50 154 l134 0 l-52 -154 l175 0 l51 154 l133 0 l-52 -154 l75 0 ZM287 291 l175 0 l46 144 l-175 0 l-46 -144 Z" /><glyph glyph-name="dollar" unicode="$" d="M747 582 l0 -54 l-131 0 l0 54 q0 7 -7 7 l-153 0 l0 -163 l153 0 q57 0 97.5 -40.5 q40.5 -40.5 40.5 -97.5 l0 -150 q0 -57 -40.5 -97.5 q-40.5 -40.5 -97.5 -40.5 l-153 0 l0 -103 l-131 0 l0 103 l-153 0 q-57 0 -97.5 40.5 q-40.5 40.5 -40.5 97.5 l0 54 l131 0 l0 -54 q0 -7 7 -7 l153 0 l0 164 l-153 0 q-57 0 -97.5 40.5 q-40.5 40.5 -40.5 97.5 l0 149 q0 57 40.5 97.5 q40.5 40.5 97.5 40.5 l153 0 l0 103 l131 0 l0 -103 l153 0 q57 0 97.5 -40.5 q40.5 -40.5 40.5 -97.5 ZM609 295 l-153 0 l0 -164 l153 0 q7 0 7 7 l0 150 q0 7 -7 7 ZM325 426 l0 163 l-153 0 q-7 0 -7 -7 l0 -149 q0 -7 7 -7 l153 0 Z" /><glyph glyph-name="percent" unicode="%" d="M808 720 l33 0 l0 -143 l-680 -577 l-33 0 l0 143 l680 577 ZM186 713 l86 0 q57 0 97.5 -40.5 q40.5 -40.5 40.5 -97.5 l0 -76 q0 -57 -40.5 -97.5 q-40.5 -40.5 -97.5 -40.5 l-86 0 q-57 0 -97.5 40.5 q-40.5 40.5 -40.5 97.5 l0 76 q0 57 40.5 97.5 q40.5 40.5 97.5 40.5 ZM167 474 l124 0 q6 0 6 6 l0 114 q0 7 -6 7 l-124 0 q-7 0 -7 -7 l0 -114 q0 -6 7 -6 ZM679 351 l85 0 q57 0 97.5 -40.5 q40.5 -40.5 40.5 -97.5 l0 -76 q0 -57 -40.5 -97.5 q-40.5 -40.5 -97.5 -40.5 l-85 0 q-57 0 -97.5 40.5 q-40.5 40.5 -40.5 97.5 l0 76 q0 57 40.5 97.5 q40.5 40.5 97.5 40.5 ZM660 111 l123 0 q7 0 7 7 l0 114 q0 7 -7 7 l-123 0 q-7 0 -7 -7 l0 -114 q0 -7 7 -7 Z" /><glyph glyph-name="ampersand" unicode="&amp;" d="M766 195 l121 -71 l0 -132 l-138 78 q-17 -32 -49.5 -51 q-32.5 -19 -71.5 -19 l-437 0 q-57 0 -97.5 40.5 q-40.5 40.5 -40.5 97.5 l0 194 q0 22 13.5 47 q13.5 25 36.5 35 q-12 21 -12 62 l0 106 q0 57 40.5 97.5 q40.5 40.5 97.5 40.5 l371 0 q50 0 89.5 -32.5 q39.5 -32.5 47.5 -81.5 l0 -85 l-131 0 l0 60 q0 7 -6 7 l-371 0 q-7 0 -7 -7 l0 -124 l413 -208 l0 109 l131 0 l0 -163 ZM191 131 l417 0 l-410 207 l-7 0 q-7 0 -7 -6 l0 -194 q0 -7 7 -7 Z" /><glyph glyph-name="quotesingle" unicode="&#39;" d="M190 719 l0 -182 l-131 0 l0 182 l131 0 Z" /><glyph glyph-name="parenleft" unicode="(" d="M189 131 l55 0 l0 -131 l-55 0 q-57 0 -97 40.5 q-40 40.5 -40 97.5 l0 444 q0 57 40 97.5 q40 40.5 97 40.5 l55 0 l0 -131 l-55 0 q-6 0 -6 -7 l0 -444 q0 -7 6 -7 Z" /><glyph glyph-name="parenright" unicode=")" d="M56 0 l0 131 l55 0 q6 0 6 7 l0 444 q0 7 -6 7 l-55 0 l0 131 l55 0 q56 0 97 -40.5 q41 -40.5 41 -97.5 l0 -444 q0 -57 -41 -97.5 q-41 -40.5 -97 -40.5 l-55 0 Z" /><glyph glyph-name="asterisk" unicode="*" d="M439 632 l41 -126 l-122 -39 l76 -103 l-106 -77 l-77 103 l-74 -103 l-106 77 l75 103 l-121 39 l40 126 l121 -41 l0 128 l132 0 l0 -127 l121 40 Z" /><glyph glyph-name="plus" unicode="+" d="M154 499 l131 0 l0 -138 l141 0 l0 -131 l-141 0 l0 -140 l-131 0 l0 140 l-137 0 l0 131 l137 0 l0 138 Z" /><glyph glyph-name="comma" unicode="," d="M54 119 l131 0 l0 -117 q0 -51 -37.5 -90 q-37.5 -39 -93.5 -49 l0 256 Z" /><glyph glyph-name="hyphen" unicode="-" d="M468 361 l0 -131 l-409 0 l0 131 l409 0 Z" /><glyph glyph-name="period" unicode="." d="M185 131 l0 -131 l-131 0 l0 131 l131 0 Z" /><glyph glyph-name="slash" unicode="/" d="M6 142 l478 578 l35 0 l0 -141 l-478 -579 l-35 0 l0 142 Z" /><glyph glyph-name="zero" unicode="0" d="M195 720 l437 0 q57 0 97.5 -42 q40.5 -42 40.5 -99 l0 -437 q0 -57 -40.5 -99.5 q-40.5 -42.5 -97.5 -42.5 l-437 0 q-57 0 -97.5 42.5 q-40.5 42.5 -40.5 99.5 l0 437 q0 57 40.5 99 q40.5 42 97.5 42 ZM580 586 l-385 0 q-7 0 -7 -7 l0 -322 l392 329 ZM247 135 l385 0 q7 0 7 7 l0 322 l-392 -329 Z" /><glyph glyph-name="one" unicode="1" d="M1 461 l217 259 l145 0 l0 -720 l-131 0 l0 529 l-58 -68 l-173 0 Z" /><glyph glyph-name="two" unicode="2" d="M195 720 l437 0 q57 0 97.5 -40.5 q40.5 -40.5 40.5 -97.5 l0 -160 q0 -57 -40.5 -97.5 q-40.5 -40.5 -97.5 -40.5 l-437 0 q-7 0 -7 -6 l0 -140 q0 -7 7 -7 l575 0 l0 -131 l-713 0 l0 278 q0 57 40.5 97.5 q40.5 40.5 97.5 40.5 l437 0 q7 0 7 6 l0 160 q0 7 -7 7 l-437 0 q-7 0 -7 -7 l0 -54 l-131 0 l0 54 q0 57 40.5 97.5 q40.5 40.5 97.5 40.5 Z" /><glyph glyph-name="three" unicode="3" d="M738 582 l0 -144 q0 -29 -10 -50 q38 -40 38 -94 l0 -156 q0 -57 -40 -97.5 q-40 -40.5 -97 -40.5 l-438 0 q-57 0 -97.5 40.5 q-40.5 40.5 -40.5 97.5 l0 43 l131 0 l0 -43 q0 -7 7 -7 l438 0 q6 0 6 7 l0 156 q0 7 -6 7 l-452 0 l0 131 l423 0 q7 0 7 6 l0 144 q0 7 -7 7 l-409 0 q-7 0 -7 -7 l0 -52 l-131 0 l0 52 q0 57 40.5 97.5 q40.5 40.5 97.5 40.5 l409 0 q57 0 97.5 -40.5 q40.5 -40.5 40.5 -97.5 Z" /><glyph glyph-name="four" unicode="4" d="M590 312 l101 0 l0 -131 l-101 0 l0 -181 l-131 0 l0 181 l-453 0 l0 123 l461 416 l123 0 l0 -408 ZM459 514 l-249 -202 l249 0 l0 202 Z" /><glyph glyph-name="five" unicode="5" d="M188 582 l0 -141 q0 -6 7 -6 l437 0 q57 0 97.5 -40.5 q40.5 -40.5 40.5 -97.5 l0 -159 q0 -57 -40.5 -97.5 q-40.5 -40.5 -97.5 -40.5 l-437 0 q-57 0 -97.5 40.5 q-40.5 40.5 -40.5 97.5 l0 54 l131 0 l0 -54 q0 -7 7 -7 l437 0 q7 0 7 7 l0 159 q0 6 -7 6 l-575 0 l0 417 l713 0 l0 -131 l-575 0 q-7 0 -7 -7 Z" /><glyph glyph-name="six" unicode="6" d="M195 435 l437 0 q57 0 97.5 -40.5 q40.5 -40.5 40.5 -97.5 l0 -159 q0 -57 -40.5 -97.5 q-40.5 -40.5 -97.5 -40.5 l-437 0 q-57 0 -97.5 40.5 q-40.5 40.5 -40.5 97.5 l0 444 q0 57 40.5 97.5 q40.5 40.5 97.5 40.5 l461 0 l0 -131 l-461 0 q-7 0 -7 -7 l0 -141 q0 -6 7 -6 ZM639 138 l0 159 q0 6 -7 6 l-444 0 l0 -165 q0 -7 7 -7 l437 0 q7 0 7 7 Z" /><glyph glyph-name="seven" unicode="7" d="M3 720 l461 0 q57 0 97.5 -40.5 q40.5 -40.5 40.5 -97.5 l0 -582 l-131 0 l0 582 q0 7 -7 7 l-461 0 l0 131 Z" /><glyph glyph-name="eight" unicode="8" d="M770 606 l0 -165 q0 -42 -20 -72 q20 -30 20 -72 l0 -159 q0 -57 -40.5 -97.5 q-40.5 -40.5 -97.5 -40.5 l-437 0 q-57 0 -97.5 40.5 q-40.5 40.5 -40.5 97.5 l0 159 q0 40 20 72 q-20 32 -20 72 l0 141 q0 57 40.5 97.5 q40.5 40.5 97.5 40.5 l437 0 q51 0 90.5 -32.5 q39.5 -32.5 47.5 -81.5 ZM639 138 l0 159 q0 6 -7 6 l-437 0 q-7 0 -7 -6 l0 -159 q0 -7 7 -7 l437 0 q7 0 7 7 ZM639 431 l0 150 q0 7 -7 7 l-437 0 q-7 0 -7 -7 l0 -150 q0 -7 7 -7 l437 0 q7 0 7 7 Z" /><glyph glyph-name="nine" unicode="9" d="M628 288 l-438 0 q-57 0 -97.5 40.5 q-40.5 40.5 -40.5 97.5 l0 156 q0 57 40.5 97.5 q40.5 40.5 97.5 40.5 l438 0 q57 0 97 -40.5 q40 -40.5 40 -97.5 l0 -444 q0 -57 -40 -97.5 q-40 -40.5 -97 -40.5 l-438 0 q-51 0 -90 37.5 q-39 37.5 -49 93.5 l577 0 q6 0 6 7 l0 144 q0 6 -6 6 ZM184 582 l0 -156 q0 -6 6 -6 l444 0 l0 162 q0 7 -6 7 l-438 0 q-6 0 -6 -7 Z" /><glyph glyph-name="colon" unicode=":" d="M54 131 l131 0 l0 -131 l-131 0 l0 131 ZM185 588 l0 -132 l-131 0 l0 132 l131 0 Z" /><glyph glyph-name="semicolon" unicode=";" d="M182 588 l0 -132 l-131 0 l0 132 l131 0 ZM51 119 l131 0 l0 -117 q0 -51 -37.5 -90 q-37.5 -39 -93.5 -49 l0 256 Z" /><glyph glyph-name="less" unicode="&lt;" d="M163 296 l261 -151 l0 -152 l-419 244 l0 118 l419 242 l0 -151 l-261 -150 Z" /><glyph glyph-name="equal" unicode="=" d="M582 267 l0 -131 l-523 0 l0 131 l523 0 ZM582 448 l0 -131 l-523 0 l0 131 l523 0 Z" /><glyph glyph-name="greater" unicode="&gt;" d="M59 -9 l0 152 l260 151 l-260 150 l0 151 l420 -242 l0 -118 l-420 -244 Z" /><glyph glyph-name="question" unicode="?" d="M31 720 l486 0 q58 0 98 -40.5 q40 -40.5 40 -97.5 l0 -175 q0 -57 -40 -97.5 q-40 -40.5 -98 -40.5 l-246 0 q-6 0 -6 -6 l0 -67 l-132 0 l0 67 q0 57 40.5 97.5 q40.5 40.5 97.5 40.5 l246 0 q7 0 7 6 l0 175 q0 7 -7 7 l-486 0 l0 131 ZM265 0 l-132 0 l0 131 l132 0 l0 -131 Z" /><glyph glyph-name="at" unicode="@" d="M381 529 l66 0 q57 0 97 -40 q40 -40 40 -97 l0 -82 l55 0 l0 272 q0 7 -7 7 l-437 0 q-7 0 -7 -7 l0 -444 q0 -7 7 -7 l575 0 l0 -131 l-575 0 q-57 0 -97.5 40.5 q-40.5 40.5 -40.5 97.5 l0 444 q0 57 40.5 97.5 q40.5 40.5 97.5 40.5 l437 0 q57 0 97.5 -40.5 q40.5 -40.5 40.5 -97.5 l0 -384 l-389 0 q-57 0 -97.5 40 q-40.5 40 -40.5 98 l0 56 q0 57 40.5 97 q40.5 40 97.5 40 ZM352 310 l130 0 l0 111 q0 6 -6 6 l-124 0 q-7 0 -7 -6 l0 -104 q0 -7 7 -7 Z" /><glyph glyph-name="A" unicode="a" d="M197 720 l441 0 q58 0 99 -40.5 q41 -40.5 41 -98.5 l0 -581 l-133 0 l0 242 l-455 0 l0 -242 l-132 0 l0 581 q0 58 40.5 98.5 q40.5 40.5 98.5 40.5 ZM190 374 l455 0 l0 207 q0 7 -7 7 l-441 0 q-7 0 -7 -7 l0 -207 Z" /><glyph glyph-name="B" unicode="b" d="M750 581 l0 -141 q0 -30 -10 -51 q39 -41 39 -95 l0 -155 q0 -58 -41 -98.5 q-41 -40.5 -99 -40.5 l-580 0 l0 720 l552 0 q57 0 98 -40.5 q41 -40.5 41 -98.5 ZM611 588 l-413 0 q-7 0 -7 -7 l0 -141 q0 -7 7 -7 l413 0 q6 0 6 7 l0 141 q0 7 -6 7 ZM646 139 l0 155 q0 6 -7 6 l-441 0 q-7 0 -7 -6 l0 -155 q0 -7 7 -7 l441 0 q7 0 7 7 Z" /><glyph glyph-name="C" unicode="c" d="M774 588 l-579 0 q-7 0 -7 -7 l0 -442 q0 -7 7 -7 l579 0 l0 -132 l-579 0 q-58 0 -98.5 40.5 q-40.5 40.5 -40.5 98.5 l0 442 q0 58 40.5 98.5 q40.5 40.5 98.5 40.5 l579 0 l0 -132 Z" /><glyph glyph-name="D" unicode="d" d="M58 720 l580 0 q58 0 99 -40.5 q41 -40.5 41 -98.5 l0 -442 q0 -58 -41 -98.5 q-41 -40.5 -99 -40.5 l-580 0 l0 720 ZM645 139 l0 442 q0 7 -7 7 l-441 0 q-7 0 -7 -7 l0 -442 q0 -7 7 -7 l441 0 q7 0 7 7 Z" /><glyph glyph-name="E" unicode="e" d="M720 720 l0 -132 l-529 0 l0 -162 l426 0 l0 -132 l-426 0 l0 -162 l529 0 l0 -132 l-662 0 l0 720 l662 0 Z" /><glyph glyph-name="F" unicode="f" d="M58 720 l662 0 l0 -132 l-529 0 l0 -162 l426 0 l0 -132 l-426 0 l0 -294 l-133 0 l0 720 Z" /><glyph glyph-name="G" unicode="g" d="M776 581 l0 -56 l-133 0 l0 56 q0 7 -7 7 l-441 0 q-7 0 -7 -7 l0 -442 q0 -7 7 -7 l441 0 q7 0 7 7 l0 136 l-163 0 l0 132 l296 0 l0 -268 q0 -58 -41 -98.5 q-41 -40.5 -99 -40.5 l-441 0 q-58 0 -98.5 40.5 q-40.5 40.5 -40.5 98.5 l0 442 q0 58 40.5 98.5 q40.5 40.5 98.5 40.5 l441 0 q58 0 99 -40.5 q41 -40.5 41 -98.5 Z" /><glyph glyph-name="H" unicode="h" d="M661 720 l132 0 l0 -720 l-132 0 l0 294 l-472 0 l0 -294 l-132 0 l0 720 l132 0 l0 -294 l472 0 l0 294 Z" /><glyph glyph-name="I" unicode="i" d="M57 0 l0 720 l132 0 l0 -720 l-132 0 Z" /><glyph glyph-name="J" unicode="j" d="M591 139 l0 581 l133 0 l0 -581 q0 -58 -41 -98.5 q-41 -40.5 -98 -40.5 l-442 0 q-58 0 -98.5 40.5 q-40.5 40.5 -40.5 98.5 l0 82 l132 0 l0 -82 q0 -7 7 -7 l442 0 q6 0 6 7 Z" /><glyph glyph-name="K" unicode="k" d="M606 720 l145 0 l0 -35 l-272 -325 l272 -325 l0 -35 l-145 0 l-246 294 l-170 0 l0 -294 l-133 0 l0 720 l133 0 l0 -294 l170 0 l246 294 Z" /><glyph glyph-name="L" unicode="l" d="M57 0 l0 721 l132 0 l0 -589 l588 0 l0 -132 l-720 0 Z" /><glyph glyph-name="M" unicode="m" d="M462 408 l261 312 l145 0 l0 -720 l-133 0 l0 528 l-273 -325 l-274 325 l0 -528 l-132 0 l0 720 l144 0 l262 -312 Z" /><glyph glyph-name="N" unicode="n" d="M643 192 l0 528 l133 0 l0 -720 l-144 0 l-444 528 l0 -528 l-132 0 l0 720 l144 0 l443 -528 Z" /><glyph glyph-name="O" unicode="o" d="M193 720 l442 0 q57 0 98 -40.5 q41 -40.5 41 -98.5 l0 -442 q0 -58 -41 -98.5 q-41 -40.5 -98 -40.5 l-442 0 q-58 0 -98.5 40.5 q-40.5 40.5 -40.5 98.5 l0 442 q0 58 40.5 98.5 q40.5 40.5 98.5 40.5 ZM193 132 l442 0 q6 0 6 7 l0 442 q0 7 -6 7 l-442 0 q-7 0 -7 -7 l0 -442 q0 -7 7 -7 Z" /><glyph glyph-name="P" unicode="p" d="M56 719 l580 0 q58 0 99 -41 q41 -41 41 -98 l0 -194 q0 -57 -41 -98 q-41 -41 -99 -41 l-445 -1 l-3 1 l0 -247 l-132 0 l0 719 ZM643 386 l0 194 q0 7 -7 7 l-441 0 q-7 0 -7 -7 l0 -194 q0 -7 7 -7 l441 0 q7 0 7 7 Z" /><glyph glyph-name="Q" unicode="q" d="M774 132 l86 0 l0 -132 l-667 0 q-58 0 -98.5 40.5 q-40.5 40.5 -40.5 98.5 l0 442 q0 58 40.5 98.5 q40.5 40.5 98.5 40.5 l441 0 q58 0 99 -40.5 q41 -40.5 41 -98.5 l0 -449 ZM193 132 l441 0 q7 0 7 7 l0 442 q0 7 -7 7 l-441 0 q-7 0 -7 -7 l0 -442 q0 -7 7 -7 Z" /><glyph glyph-name="R" unicode="r" d="M775 580 l0 -194 q0 -57 -41 -98 q-41 -41 -99 -41 l-39 0 l179 -213 l0 -34 l-144 0 l-208 247 l-233 0 l-3 0 l0 -247 l-132 0 l0 719 l580 0 q58 0 99 -41 q41 -41 41 -98 ZM194 379 l441 0 q7 0 7 7 l0 194 q0 7 -7 7 l-441 0 q-7 0 -7 -7 l0 -194 q0 -7 7 -7 Z" /><glyph glyph-name="S" unicode="s" d="M771 581 l0 -55 l-133 0 l0 55 q0 7 -6 7 l-442 0 q-7 0 -7 -7 l0 -148 q0 -7 7 -7 l442 0 q57 0 98 -40.5 q41 -40.5 41 -98.5 l0 -148 q0 -58 -41 -98.5 q-41 -40.5 -98 -40.5 l-442 0 q-58 0 -98.5 40.5 q-40.5 40.5 -40.5 98.5 l0 55 l132 0 l0 -55 q0 -7 7 -7 l442 0 q6 0 6 7 l0 148 q0 7 -6 7 l-442 0 q-58 0 -98.5 40.5 q-40.5 40.5 -40.5 98.5 l0 148 q0 58 40.5 98.5 q40.5 40.5 98.5 40.5 l442 0 q57 0 98 -40.5 q41 -40.5 41 -98.5 Z" /><glyph glyph-name="T" unicode="t" d="M20 720 l720 0 l0 -132 l-293 0 l0 -588 l-133 0 l0 588 l-294 0 l0 132 Z" /><glyph glyph-name="U" unicode="u" d="M641 139 l0 581 l133 0 l0 -581 q0 -58 -41 -98.5 q-41 -40.5 -98 -40.5 l-442 0 q-58 0 -98.5 40.5 q-40.5 40.5 -40.5 98.5 l0 581 l132 0 l0 -581 q0 -7 7 -7 l442 0 q6 0 6 7 Z" /><glyph glyph-name="V" unicode="v" d="M511 160 l322 560 l153 0 l-416 -720 l-119 0 l-416 720 l153 0 l323 -560 Z" /><glyph glyph-name="W" unicode="w" d="M1000 720 l140 0 l-262 -720 l-104 0 l-187 511 l-187 -511 l-103 0 l-262 720 l140 0 l174 -475 l174 475 l129 0 l174 -475 l174 475 Z" /><glyph glyph-name="X" unicode="x" d="M621 720 l145 0 l0 -35 l-274 -325 l274 -325 l0 -35 l-145 0 l-215 255 l-215 -255 l-145 0 l0 35 l273 325 l-273 325 l0 35 l145 0 l215 -255 l215 255 Z" /><glyph glyph-name="Y" unicode="y" d="M657 720 l158 0 l-333 -451 l0 -269 l-132 0 l0 269 l-333 451 l157 0 l242 -306 l241 306 Z" /><glyph glyph-name="Z" unicode="z" d="M51 588 l0 132 l720 0 l0 -144 l-528 -444 l528 0 l0 -132 l-720 0 l0 144 l528 444 l-528 0 Z" /><glyph glyph-name="bracketleft" unicode="[" d="M54 0 l0 720 l192 0 l0 -131 l-61 0 l0 -458 l61 0 l0 -131 l-192 0 Z" /><glyph glyph-name="backslash" unicode="\" d="M5 720 l35 0 l478 -579 l0 -141 l-35 0 l-478 579 l0 141 Z" /><glyph glyph-name="bracketright" unicode="]" d="M51 589 l0 131 l192 0 l0 -720 l-192 0 l0 131 l60 0 l0 458 l-60 0 Z" /><glyph glyph-name="underscore" unicode="_" d="M767 0 l0 -131 l-713 0 l0 131 l713 0 Z" /><glyph glyph-name="grave" unicode="`" d="M165 969 l46 -183 l-133 0 l-46 183 l133 0 Z" /><glyph glyph-name="a" unicode="a" d="M503 580 q57 0 97.5 -40.5 q40.5 -40.5 40.5 -97.5 l0 -442 l-451 0 q-57 0 -97.5 40.5 q-40.5 40.5 -40.5 97.5 l0 218 l458 0 l0 86 q0 7 -7 7 l-451 0 l0 131 l451 0 ZM510 131 l0 93 l-327 0 l0 -86 q0 -7 7 -7 l320 0 Z" /><glyph glyph-name="b" unicode="b" d="M505 580 q57 0 97.5 -40.5 q40.5 -40.5 40.5 -97.5 l0 -304 q0 -57 -40.5 -97.5 q-40.5 -40.5 -97.5 -40.5 l-451 0 l0 770 l131 0 l0 -190 l320 0 ZM512 138 l0 304 q0 7 -7 7 l-313 0 q-7 0 -7 -7 l0 -304 q0 -7 7 -7 l313 0 q7 0 7 7 Z" /><glyph glyph-name="c" unicode="c" d="M189 131 l451 0 l0 -131 l-451 0 q-57 0 -97.5 40.5 q-40.5 40.5 -40.5 97.5 l0 304 q0 57 40.5 97.5 q40.5 40.5 97.5 40.5 l449 0 l0 -131 l-449 0 q-7 0 -7 -7 l0 -304 q0 -7 7 -7 Z" /><glyph glyph-name="d" unicode="d" d="M482 770 l131 0 l0 -770 l-452 0 q-57 0 -97.5 40.5 q-40.5 40.5 -40.5 97.5 l0 304 q0 57 40.5 97.5 q40.5 40.5 97.5 40.5 l321 0 l0 190 ZM161 131 l314 0 q7 0 7 7 l0 304 q0 7 -7 7 l-314 0 q-6 0 -6 -7 l0 -304 q0 -7 6 -7 Z" /><glyph glyph-name="e" unicode="e" d="M502 580 q57 0 97.5 -40.5 q40.5 -40.5 40.5 -97.5 l0 -218 l-458 0 l0 -86 q0 -7 7 -7 l451 0 l0 -131 l-451 0 q-57 0 -97.5 40.5 q-40.5 40.5 -40.5 97.5 l0 304 q0 57 40.5 97.5 q40.5 40.5 97.5 40.5 l313 0 ZM182 356 l327 0 l0 86 q0 7 -7 7 l-313 0 q-7 0 -7 -7 l0 -86 Z" /><glyph glyph-name="f" unicode="f" d="M191 638 q-7 0 -7 -6 l0 -52 l226 0 l0 -131 l-226 0 l0 -449 l-131 0 l0 632 q0 57 40 97.5 q40 40.5 98 40.5 l219 0 l0 -132 l-219 0 Z" /><glyph glyph-name="g" unicode="g" d="M630 -92 q0 -57 -40 -97.5 q-40 -40.5 -97 -40.5 l-355 0 l0 132 l355 0 q6 0 6 6 l0 92 l-320 0 q-57 0 -97.5 40.5 q-40.5 40.5 -40.5 97.5 l0 304 q0 57 40.5 97.5 q40.5 40.5 97.5 40.5 l314 0 q57 0 97 -40.5 q40 -40.5 40 -97.5 l0 -534 ZM179 131 l314 0 q6 0 6 7 l0 304 q0 7 -6 7 l-314 0 q-7 0 -7 -7 l0 -304 q0 -7 7 -7 Z" /><glyph glyph-name="h" unicode="h" d="M505 580 q56 0 97 -40.5 q41 -40.5 41 -97.5 l0 -442 l-131 0 l0 442 q0 7 -7 7 l-313 0 q-7 0 -7 -7 l0 -442 l-131 0 l0 770 l131 0 l0 -190 l320 0 Z" /><glyph glyph-name="i" unicode="i" d="M52 0 l0 580 l131 0 l0 -580 l-131 0 ZM52 770 l131 0 l0 -132 l-131 0 l0 132 Z" /><glyph glyph-name="j" unicode="j" d="M70 770 l131 0 l0 -132 l-131 0 l0 132 ZM201 580 l0 -661 q0 -57 -40.5 -97.5 q-40.5 -40.5 -97.5 -40.5 l-250 0 l0 132 l250 0 q7 0 7 6 l0 661 l131 0 Z" /><glyph glyph-name="k" unicode="k" d="M495 580 l141 0 l0 -34 l-232 -256 l232 -256 l0 -34 l-141 0 l-207 224 l-103 0 l0 -224 l-131 0 l0 770 l131 0 l0 -414 l103 0 l207 224 Z" /><glyph glyph-name="l" unicode="l" d="M52 770 l132 0 l0 -632 q0 -7 6 -7 l117 0 l0 -131 l-117 0 q-57 0 -97.5 40.5 q-40.5 40.5 -40.5 97.5 l0 632 Z" /><glyph glyph-name="m" unicode="m" d="M773 580 q57 0 97.5 -40.5 q40.5 -40.5 40.5 -97.5 l0 -442 l-130 0 l0 442 q0 7 -8 7 l-218 0 q-6 0 -6 -7 l0 -442 l-132 0 l0 442 q0 7 -6 7 l-219 0 q-7 0 -7 -7 l0 -442 l-131 0 l0 580 l719 0 Z" /><glyph glyph-name="n" unicode="n" d="M505 580 q57 0 97.5 -40.5 q40.5 -40.5 40.5 -97.5 l0 -442 l-131 0 l0 442 q0 7 -7 7 l-313 0 q-7 0 -7 -7 l0 -442 l-131 0 l0 580 l451 0 Z" /><glyph glyph-name="o" unicode="o" d="M189 580 l313 0 q57 0 97.5 -40.5 q40.5 -40.5 40.5 -97.5 l0 -304 q0 -57 -40.5 -97.5 q-40.5 -40.5 -97.5 -40.5 l-313 0 q-57 0 -97.5 40.5 q-40.5 40.5 -40.5 97.5 l0 304 q0 57 40.5 97.5 q40.5 40.5 97.5 40.5 ZM502 449 l-313 0 q-7 0 -7 -7 l0 -304 q0 -7 7 -7 l313 0 q7 0 7 7 l0 304 q0 7 -7 7 Z" /><glyph glyph-name="p" unicode="p" d="M505 580 q57 0 97.5 -40.5 q40.5 -40.5 40.5 -97.5 l0 -304 q0 -57 -40.5 -97.5 q-40.5 -40.5 -97.5 -40.5 l-320 0 l0 -230 l-131 0 l0 810 l451 0 ZM512 138 l0 304 q0 7 -7 7 l-313 0 q-7 0 -7 -7 l0 -304 q0 -7 7 -7 l313 0 q7 0 7 7 Z" /><glyph glyph-name="q" unicode="q" d="M20 442 q0 57 40.5 97.5 q40.5 40.5 97.5 40.5 l452 0 l0 -810 l-131 0 l0 230 l-321 0 q-57 0 -97.5 40.5 q-40.5 40.5 -40.5 97.5 l0 304 ZM152 442 l0 -304 q0 -7 6 -7 l314 0 q7 0 7 7 l0 304 q0 7 -7 7 l-314 0 q-6 0 -6 -7 Z" /><glyph glyph-name="r" unicode="r" d="M190 580 l322 0 l0 -131 l-322 0 q-7 0 -7 -7 l0 -442 l-131 0 l0 442 q0 57 40.5 97.5 q40.5 40.5 97.5 40.5 Z" /><glyph glyph-name="s" unicode="s" d="M637 442 l0 -25 l-131 0 l0 25 q0 7 -7 7 l-313 0 q-7 0 -7 -7 l0 -80 q0 -6 7 -6 l313 0 q58 0 98 -40.5 q40 -40.5 40 -97.5 l0 -80 q0 -57 -40 -97.5 q-40 -40.5 -98 -40.5 l-313 0 q-57 0 -97.5 40.5 q-40.5 40.5 -40.5 97.5 l0 25 l131 0 l0 -25 q0 -7 7 -7 l313 0 q7 0 7 7 l0 80 q0 6 -7 6 l-313 0 q-57 0 -97.5 40.5 q-40.5 40.5 -40.5 97.5 l0 80 q0 57 40.5 97.5 q40.5 40.5 97.5 40.5 l313 0 q58 0 98 -40.5 q40 -40.5 40 -97.5 Z" /><glyph glyph-name="t" unicode="t" d="M410 449 l-226 0 l0 -311 q0 -7 7 -7 l219 0 l0 -131 l-219 0 q-58 0 -98 40.5 q-40 40.5 -40 97.5 l0 632 l131 0 l0 -190 l226 0 l0 -131 Z" /><glyph glyph-name="u" unicode="u" d="M511 580 l131 0 l0 -442 q0 -57 -40.5 -97.5 q-40.5 -40.5 -97.5 -40.5 l-313 0 q-58 0 -98 40.5 q-40 40.5 -40 97.5 l0 442 l131 0 l0 -442 q0 -7 7 -7 l313 0 q7 0 7 7 l0 442 Z" /><glyph glyph-name="v" unicode="v" d="M629 580 l151 0 l-320 -580 l-120 0 l-319 580 l151 0 l228 -421 l229 421 Z" /><glyph glyph-name="w" unicode="w" d="M888 580 l139 0 l-218 -580 l-102 0 l-175 388 l-168 -388 l-101 0 l-228 580 l139 0 l140 -342 l149 342 l136 0 l158 -344 l131 344 Z" /><glyph glyph-name="x" unicode="x" d="M502 580 l143 0 l0 -33 l-215 -252 l215 -262 l0 -33 l-143 0 l-157 192 l-156 -192 l-143 0 l0 33 l214 262 l-214 252 l0 33 l143 0 l156 -184 l157 184 Z" /><glyph glyph-name="y" unicode="y" d="M631 -92 q0 -57 -40 -97.5 q-40 -40.5 -97 -40.5 l-355 0 l0 132 l355 0 q6 0 6 6 l0 92 l-320 0 q-57 0 -97.5 40.5 q-40.5 40.5 -40.5 97.5 l0 440 l131 0 l0 -440 q0 -7 7 -7 l314 0 q6 0 6 7 l0 440 l131 0 l0 -670 Z" /><glyph glyph-name="z" unicode="z" d="M54 449 l0 131 l589 0 l0 -143 l-396 -306 l396 0 l0 -131 l-589 0 l0 143 l396 306 l-396 0 Z" /><glyph glyph-name="braceleft" unicode="{" d="M196 318 l0 -180 q0 -7 7 -7 l54 0 l0 -131 l-54 0 q-58 0 -98 40.5 q-40 40.5 -40 97.5 l0 143 q-7 4 -22 13.5 q-15 9.5 -20 11.5 l0 119 l42 23 l0 134 q0 57 40 97.5 q40 40.5 98 40.5 l54 0 l0 -131 l-54 0 q-7 0 -7 -7 l0 -171 l-57 -46 l57 -47 Z" /><glyph glyph-name="bar" unicode="|" d="M54 -104 l0 920 l131 0 l0 -920 l-131 0 Z" /><glyph glyph-name="braceright" unicode="}" d="M112 138 l0 180 l57 47 l-57 46 l0 171 q0 7 -7 7 l-54 0 l0 131 l54 0 q57 0 97.5 -40.5 q40.5 -40.5 40.5 -97.5 l0 -129 q7 -4 21.5 -15 q14.5 -11 20.5 -14 l0 -118 l-42 -25 l0 -143 q0 -57 -40.5 -97.5 q-40.5 -40.5 -97.5 -40.5 l-54 0 l0 131 l54 0 q7 0 7 7 Z" /><glyph glyph-name="asciitilde" unicode="~" d="M301 312 q48 0 87 26 l0 -96 q-50 -21 -89 -21 q-36 0 -97.5 32 q-61.5 32 -98.5 32 q-47 0 -79 -31 l0 104 q43 19 85 19 q38 0 99 -30 q61 -30 93 -35 Z" /><glyph glyph-name="exclamdown" unicode="¡" d="M184 720 l0 -131 l-131 0 l0 131 l131 0 ZM184 0 l-131 0 l0 523 l131 0 l0 -523 Z" /><glyph glyph-name="cent" unicode="¢" d="M621 458 l-197 0 l0 -327 l197 0 l0 -131 l-197 0 l0 -104 l-132 0 l0 104 l-121 0 q-57 0 -97.5 40.5 q-40.5 40.5 -40.5 97.5 l0 314 q0 57 40.5 97.5 q40.5 40.5 97.5 40.5 l121 0 l0 121 l132 0 l0 -121 l197 0 l0 -132 ZM292 131 l0 327 l-121 0 q-7 0 -7 -6 l0 -314 q0 -7 7 -7 l121 0 Z" /><glyph glyph-name="sterling" unicode="£" d="M683 539 l-131 0 l0 43 q0 7 -6 7 l-274 0 q-7 0 -7 -7 l0 -160 l318 0 l0 -131 l-318 0 l0 -160 l418 0 l0 -131 l-644 0 l0 131 l95 0 l0 160 l-95 0 l0 131 l95 0 l0 160 q0 57 40.5 97.5 q40.5 40.5 97.5 40.5 l274 0 q57 0 97 -40.5 q40 -40.5 40 -97.5 l0 -43 Z" /><glyph glyph-name="dieresis" unicode="¨¬" d="M357 918 l0 -132 l-132 0 l0 132 l132 0 ZM185 918 l0 -132 l-131 0 l0 132 l131 0 Z" /><glyph glyph-name="degree" unicode="°" d="M183 713 l85 0 q57 0 97.5 -40.5 q40.5 -40.5 40.5 -97.5 l0 -76 q0 -57 -40.5 -97.5 q-40.5 -40.5 -97.5 -40.5 l-85 0 q-57 0 -97.5 40.5 q-40.5 40.5 -40.5 97.5 l0 76 q0 57 40.5 97.5 q40.5 40.5 97.5 40.5 ZM164 474 l123 0 q7 0 7 6 l0 114 q0 7 -7 7 l-123 0 q-7 0 -7 -7 l0 -114 q0 -6 7 -6 Z" /><glyph glyph-name="acute" unicode="«´" d="M33 786 l46 183 l133 0 l-46 -183 l-133 0 Z" /><glyph glyph-name="paragraph" unicode="¦¶" d="M56 574 q0 56 40.5 97 q40.5 41 97.5 41 l575 0 l0 -712 l-131 0 l0 244 l-77 0 l0 -244 l-132 0 l0 244 l-235 0 q-57 0 -97.5 41 q-40.5 41 -40.5 97 l0 192 ZM561 581 l0 -205 l77 0 l0 205 l-77 0 ZM187 574 l0 -192 q0 -6 7 -6 l235 0 l0 205 l-235 0 q-7 0 -7 -7 Z" /><glyph glyph-name="cedilla" unicode="¸" d="M33 -154 l46 183 l133 0 l-46 -183 l-133 0 Z" /><glyph glyph-name="questiondown" unicode="¿" d="M644 0 l-487 0 q-57 0 -97.5 40.5 q-40.5 40.5 -40.5 97.5 l0 175 q0 57 40.5 97.5 q40.5 40.5 97.5 40.5 l246 0 q7 0 7 6 l0 73 l131 0 l0 -73 q0 -57 -40.5 -97.5 q-40.5 -40.5 -97.5 -40.5 l-246 0 q-7 0 -7 -6 l0 -175 q0 -7 7 -7 l487 0 l0 -131 ZM541 720 l0 -131 l-131 0 l0 131 l131 0 Z" /><glyph glyph-name="Agrave" unicode="à" d="M197 720 l441 0 q58 0 99 -40.5 q41 -40.5 41 -98.5 l0 -581 l-133 0 l0 242 l-455 0 l0 -242 l-132 0 l0 581 q0 58 40.5 98.5 q40.5 40.5 98.5 40.5 ZM190 374 l455 0 l0 207 q0 7 -7 7 l-441 0 q-7 0 -7 -7 l0 -207 ZM477 962 l46 -183 l-133 0 l-46 183 l133 0 Z" /><glyph glyph-name="Aacute" unicode="á" d="M197 720 l441 0 q58 0 99 -40.5 q41 -40.5 41 -98.5 l0 -581 l-133 0 l0 242 l-455 0 l0 -242 l-132 0 l0 581 q0 58 40.5 98.5 q40.5 40.5 98.5 40.5 ZM190 374 l455 0 l0 207 q0 7 -7 7 l-441 0 q-7 0 -7 -7 l0 -207 ZM344 778 l46 183 l133 0 l-46 -183 l-133 0 Z" /><glyph glyph-name="Acircumflex" unicode="â" d="M197 720 l441 0 q58 0 99 -40.5 q41 -40.5 41 -98.5 l0 -581 l-133 0 l0 242 l-455 0 l0 -242 l-132 0 l0 581 q0 58 40.5 98.5 q40.5 40.5 98.5 40.5 ZM190 374 l455 0 l0 207 q0 7 -7 7 l-441 0 q-7 0 -7 -7 l0 -207 ZM400 778 l-104 0 l98 163 l87 0 l98 -163 l-106 0 l-37 59 q-6 -9 -18 -29.5 q-12 -20.5 -18 -29.5 Z" /><glyph glyph-name="Atilde" unicode="ã" d="M197 720 l441 0 q58 0 99 -40.5 q41 -40.5 41 -98.5 l0 -581 l-133 0 l0 242 l-455 0 l0 -242 l-132 0 l0 581 q0 58 40.5 98.5 q40.5 40.5 98.5 40.5 ZM190 374 l455 0 l0 207 q0 7 -7 7 l-441 0 q-7 0 -7 -7 l0 -207 ZM519 874 q47 0 87 27 l0 -96 q-52 -22 -89 -22 q-36 0 -96 32.5 q-60 32.5 -94 32.5 l-12 0 q-44 0 -73 -38 l0 111 q45 18 85 18 q39 0 99.5 -30.5 q60.5 -30.5 92.5 -34.5 Z" /><glyph glyph-name="Adieresis" unicode="ä" d="M197 720 l441 0 q58 0 99 -40.5 q41 -40.5 41 -98.5 l0 -581 l-133 0 l0 242 l-455 0 l0 -242 l-132 0 l0 581 q0 58 40.5 98.5 q40.5 40.5 98.5 40.5 ZM190 374 l455 0 l0 207 q0 7 -7 7 l-441 0 q-7 0 -7 -7 l0 -207 ZM582 901 l0 -132 l-132 0 l0 132 l132 0 ZM410 901 l0 -132 l-131 0 l0 132 l131 0 Z" /><glyph glyph-name="Aring" unicode="å" d="M197 720 l441 0 q58 0 99 -40.5 q41 -40.5 41 -98.5 l0 -581 l-133 0 l0 242 l-455 0 l0 -242 l-132 0 l0 581 q0 58 40.5 98.5 q40.5 40.5 98.5 40.5 ZM190 374 l455 0 l0 207 q0 7 -7 7 l-441 0 q-7 0 -7 -7 l0 -207 ZM388 961 l54 0 q27 0 46 -19.5 q19 -19.5 19 -45.5 l0 -51 q0 -26 -19 -45.5 q-19 -19.5 -46 -19.5 l-54 0 q-27 0 -46 19.5 q-19 19.5 -19 45.5 l0 51 q0 26 19 45.5 q19 19.5 46 19.5 ZM389 894 l0 -47 l52 0 l0 47 l-52 0 Z" /><glyph glyph-name="AE" unicode="®æ" d="M774 588 l0 -162 l426 0 l0 -132 l-426 0 l0 -162 l530 0 l0 -132 l-662 0 l0 242 l-455 0 l0 -242 l-133 0 l0 581 q0 58 41 98.5 q41 40.5 98 40.5 l1111 0 l0 -132 l-530 0 ZM642 374 l0 207 q0 7 -7 7 l-442 0 q-6 0 -6 -7 l0 -207 l455 0 Z" /><glyph glyph-name="Ccedilla" unicode="ç" d="M774 588 l-579 0 q-7 0 -7 -7 l0 -442 q0 -7 7 -7 l579 0 l0 -132 l-266 0 l-38 -154 l-133 0 l38 154 l-180 0 q-58 0 -98.5 40.5 q-40.5 40.5 -40.5 98.5 l0 442 q0 58 40.5 98.5 q40.5 40.5 98.5 40.5 l579 0 l0 -132 Z" /><glyph glyph-name="Egrave" unicode="è" d="M720 720 l0 -132 l-529 0 l0 -162 l426 0 l0 -132 l-426 0 l0 -162 l529 0 l0 -132 l-662 0 l0 720 l662 0 ZM442 962 l46 -183 l-133 0 l-46 183 l133 0 Z" /><glyph glyph-name="Eacute" unicode="é" d="M720 720 l0 -132 l-529 0 l0 -162 l426 0 l0 -132 l-426 0 l0 -162 l529 0 l0 -132 l-662 0 l0 720 l662 0 ZM309 779 l46 183 l133 0 l-46 -183 l-133 0 Z" /><glyph glyph-name="Ecircumflex" unicode="ê" d="M720 720 l0 -132 l-529 0 l0 -162 l426 0 l0 -132 l-426 0 l0 -162 l529 0 l0 -132 l-662 0 l0 720 l662 0 ZM365 778 l-104 0 l98 163 l87 0 l98 -163 l-106 0 l-37 59 q-6 -9 -18 -29.5 q-12 -20.5 -18 -29.5 Z" /><glyph glyph-name="Edieresis" unicode="ë" d="M720 720 l0 -132 l-529 0 l0 -162 l426 0 l0 -132 l-426 0 l0 -162 l529 0 l0 -132 l-662 0 l0 720 l662 0 ZM547 911 l0 -132 l-132 0 l0 132 l132 0 ZM375 911 l0 -132 l-131 0 l0 132 l131 0 Z" /><glyph glyph-name="Igrave" unicode="ì" d="M57 0 l0 720 l132 0 l0 -720 l-132 0 ZM169 962 l46 -183 l-133 0 l-46 183 l133 0 Z" /><glyph glyph-name="Iacute" unicode="í" d="M57 0 l0 720 l132 0 l0 -720 l-132 0 ZM36 779 l46 183 l133 0 l-46 -183 l-133 0 Z" /><glyph glyph-name="Icircumflex" unicode="î" d="M57 0 l0 720 l132 0 l0 -720 l-132 0 ZM92 778 l-104 0 l98 163 l87 0 l98 -163 l-106 0 l-37 59 q-6 -9 -18 -29.5 q-12 -20.5 -18 -29.5 Z" /><glyph glyph-name="Idieresis" unicode="ï" d="M57 0 l0 720 l132 0 l0 -720 l-132 0 ZM274 911 l0 -132 l-132 0 l0 132 l132 0 ZM102 911 l0 -132 l-131 0 l0 132 l131 0 Z" /><glyph glyph-name="Ntilde" unicode="ñ" d="M643 192 l0 528 l133 0 l0 -720 l-144 0 l-444 528 l0 -528 l-132 0 l0 720 l144 0 l443 -528 ZM517 874 q47 0 87 27 l0 -96 q-52 -22 -89 -22 q-36 0 -96 32.5 q-60 32.5 -94 32.5 l-12 0 q-44 0 -73 -38 l0 111 q45 18 85 18 q39 0 99.5 -30.5 q60.5 -30.5 92.5 -34.5 Z" /><glyph glyph-name="Ograve" unicode="ò" d="M193 720 l442 0 q57 0 98 -40.5 q41 -40.5 41 -98.5 l0 -442 q0 -58 -41 -98.5 q-41 -40.5 -98 -40.5 l-442 0 q-58 0 -98.5 40.5 q-40.5 40.5 -40.5 98.5 l0 442 q0 58 40.5 98.5 q40.5 40.5 98.5 40.5 ZM193 132 l442 0 q6 0 6 7 l0 442 q0 7 -6 7 l-442 0 q-7 0 -7 -7 l0 -442 q0 -7 7 -7 ZM473 962 l46 -183 l-133 0 l-46 183 l133 0 Z" /><glyph glyph-name="Oacute" unicode="ó" d="M193 720 l442 0 q57 0 98 -40.5 q41 -40.5 41 -98.5 l0 -442 q0 -58 -41 -98.5 q-41 -40.5 -98 -40.5 l-442 0 q-58 0 -98.5 40.5 q-40.5 40.5 -40.5 98.5 l0 442 q0 58 40.5 98.5 q40.5 40.5 98.5 40.5 ZM193 132 l442 0 q6 0 6 7 l0 442 q0 7 -6 7 l-442 0 q-7 0 -7 -7 l0 -442 q0 -7 7 -7 ZM340 779 l46 183 l133 0 l-46 -183 l-133 0 Z" /><glyph glyph-name="Ocircumflex" unicode="ô" d="M193 720 l442 0 q57 0 98 -40.5 q41 -40.5 41 -98.5 l0 -442 q0 -58 -41 -98.5 q-41 -40.5 -98 -40.5 l-442 0 q-58 0 -98.5 40.5 q-40.5 40.5 -40.5 98.5 l0 442 q0 58 40.5 98.5 q40.5 40.5 98.5 40.5 ZM193 132 l442 0 q6 0 6 7 l0 442 q0 7 -6 7 l-442 0 q-7 0 -7 -7 l0 -442 q0 -7 7 -7 ZM396 778 l-104 0 l98 163 l87 0 l98 -163 l-106 0 l-37 59 q-6 -9 -18 -29.5 q-12 -20.5 -18 -29.5 Z" /><glyph glyph-name="Otilde" unicode="õ" d="M193 720 l442 0 q57 0 98 -40.5 q41 -40.5 41 -98.5 l0 -442 q0 -58 -41 -98.5 q-41 -40.5 -98 -40.5 l-442 0 q-58 0 -98.5 40.5 q-40.5 40.5 -40.5 98.5 l0 442 q0 58 40.5 98.5 q40.5 40.5 98.5 40.5 ZM193 132 l442 0 q6 0 6 7 l0 442 q0 7 -6 7 l-442 0 q-7 0 -7 -7 l0 -442 q0 -7 7 -7 ZM515 874 q47 0 87 27 l0 -96 q-52 -22 -89 -22 q-36 0 -96 32.5 q-60 32.5 -94 32.5 l-12 0 q-44 0 -73 -38 l0 111 q45 18 85 18 q39 0 99.5 -30.5 q60.5 -30.5 92.5 -34.5 Z" /><glyph glyph-name="Odieresis" unicode="ö" d="M193 720 l442 0 q57 0 98 -40.5 q41 -40.5 41 -98.5 l0 -442 q0 -58 -41 -98.5 q-41 -40.5 -98 -40.5 l-442 0 q-58 0 -98.5 40.5 q-40.5 40.5 -40.5 98.5 l0 442 q0 58 40.5 98.5 q40.5 40.5 98.5 40.5 ZM193 132 l442 0 q6 0 6 7 l0 442 q0 7 -6 7 l-442 0 q-7 0 -7 -7 l0 -442 q0 -7 7 -7 ZM578 911 l0 -132 l-132 0 l0 132 l132 0 ZM406 911 l0 -132 l-131 0 l0 132 l131 0 Z" /><glyph glyph-name="multiply" unicode="×" d="M500 513 l0 -33 l-139 -180 l139 -181 l0 -33 l-144 0 l-80 109 l-80 -109 l-143 0 l0 33 l139 181 l-139 180 l0 33 l143 0 l80 -109 l80 109 l144 0 Z" /><glyph glyph-name="Ugrave" unicode="ù" d="M641 139 l0 581 l133 0 l0 -581 q0 -58 -41 -98.5 q-41 -40.5 -98 -40.5 l-442 0 q-58 0 -98.5 40.5 q-40.5 40.5 -40.5 98.5 l0 581 l132 0 l0 -581 q0 -7 7 -7 l442 0 q6 0 6 7 ZM473 962 l46 -183 l-133 0 l-46 183 l133 0 Z" /><glyph glyph-name="Uacute" unicode="ú" d="M641 139 l0 581 l133 0 l0 -581 q0 -58 -41 -98.5 q-41 -40.5 -98 -40.5 l-442 0 q-58 0 -98.5 40.5 q-40.5 40.5 -40.5 98.5 l0 581 l132 0 l0 -581 q0 -7 7 -7 l442 0 q6 0 6 7 ZM340 779 l46 183 l133 0 l-46 -183 l-133 0 Z" /><glyph glyph-name="Ucircumflex" unicode="û" d="M641 139 l0 581 l133 0 l0 -581 q0 -58 -41 -98.5 q-41 -40.5 -98 -40.5 l-442 0 q-58 0 -98.5 40.5 q-40.5 40.5 -40.5 98.5 l0 581 l132 0 l0 -581 q0 -7 7 -7 l442 0 q6 0 6 7 ZM396 778 l-104 0 l98 163 l87 0 l98 -163 l-106 0 l-37 59 q-6 -9 -18 -29.5 q-12 -20.5 -18 -29.5 Z" /><glyph glyph-name="Udieresis" unicode="ü" d="M641 139 l0 581 l133 0 l0 -581 q0 -58 -41 -98.5 q-41 -40.5 -98 -40.5 l-442 0 q-58 0 -98.5 40.5 q-40.5 40.5 -40.5 98.5 l0 581 l132 0 l0 -581 q0 -7 7 -7 l442 0 q6 0 6 7 ZM578 911 l0 -132 l-132 0 l0 132 l132 0 ZM406 911 l0 -132 l-131 0 l0 132 l131 0 Z" /><glyph glyph-name="Yacute" unicode="ý" d="M657 720 l158 0 l-333 -451 l0 -269 l-132 0 l0 269 l-333 451 l157 0 l242 -306 l241 306 ZM329 779 l46 183 l133 0 l-46 -183 l-133 0 Z" /><glyph glyph-name="germandbls" unicode="§ß" d="M770 599 l0 -161 q0 -42 -20 -72 q20 -30 20 -72 l0 -156 q0 -57 -40.5 -97.5 q-40.5 -40.5 -97.5 -40.5 l-359 0 l0 131 l359 0 q7 0 7 7 l0 156 q0 6 -7 6 l-359 0 l0 121 l359 0 q7 0 7 7 l0 146 q0 7 -7 7 l-437 0 q-7 0 -7 -7 l0 -574 l-131 0 l0 575 q0 57 40.5 97.5 q40.5 40.5 97.5 40.5 l437 0 q51 0 90.5 -32.5 q39.5 -32.5 47.5 -81.5 Z" /><glyph glyph-name="agrave" unicode="à" d="M503 580 q57 0 97.5 -40.5 q40.5 -40.5 40.5 -97.5 l0 -442 l-451 0 q-57 0 -97.5 40.5 q-40.5 40.5 -40.5 97.5 l0 218 l458 0 l0 86 q0 7 -7 7 l-451 0 l0 131 l451 0 ZM510 131 l0 93 l-327 0 l0 -86 q0 -7 7 -7 l320 0 ZM421 860 l46 -183 l-133 0 l-46 183 l133 0 Z" /><glyph glyph-name="aacute" unicode="á" d="M503 580 q57 0 97.5 -40.5 q40.5 -40.5 40.5 -97.5 l0 -442 l-451 0 q-57 0 -97.5 40.5 q-40.5 40.5 -40.5 97.5 l0 218 l458 0 l0 86 q0 7 -7 7 l-451 0 l0 131 l451 0 ZM510 131 l0 93 l-327 0 l0 -86 q0 -7 7 -7 l320 0 ZM288 677 l46 183 l133 0 l-46 -183 l-133 0 Z" /><glyph glyph-name="acircumflex" unicode="â" d="M503 580 q57 0 97.5 -40.5 q40.5 -40.5 40.5 -97.5 l0 -442 l-451 0 q-57 0 -97.5 40.5 q-40.5 40.5 -40.5 97.5 l0 218 l458 0 l0 86 q0 7 -7 7 l-451 0 l0 131 l451 0 ZM510 131 l0 93 l-327 0 l0 -86 q0 -7 7 -7 l320 0 ZM344 677 l-104 0 l98 163 l87 0 l98 -163 l-106 0 l-37 59 q-6 -9 -18 -29.5 q-12 -20.5 -18 -29.5 Z" /><glyph glyph-name="atilde" unicode="ã" d="M503 580 q57 0 97.5 -40.5 q40.5 -40.5 40.5 -97.5 l0 -442 l-451 0 q-57 0 -97.5 40.5 q-40.5 40.5 -40.5 97.5 l0 218 l458 0 l0 86 q0 7 -7 7 l-451 0 l0 131 l451 0 ZM510 131 l0 93 l-327 0 l0 -86 q0 -7 7 -7 l320 0 ZM463 771 q47 0 87 27 l0 -96 q-52 -22 -89 -22 q-36 0 -96 32.5 q-60 32.5 -94 32.5 l-12 0 q-44 0 -73 -38 l0 111 q45 18 85 18 q39 0 99.5 -30.5 q60.5 -30.5 92.5 -34.5 Z" /><glyph glyph-name="adieresis" unicode="ä" d="M503 580 q57 0 97.5 -40.5 q40.5 -40.5 40.5 -97.5 l0 -442 l-451 0 q-57 0 -97.5 40.5 q-40.5 40.5 -40.5 97.5 l0 218 l458 0 l0 86 q0 7 -7 7 l-451 0 l0 131 l451 0 ZM510 131 l0 93 l-327 0 l0 -86 q0 -7 7 -7 l320 0 ZM526 809 l0 -132 l-132 0 l0 132 l132 0 ZM354 809 l0 -132 l-131 0 l0 132 l131 0 Z" /><glyph glyph-name="aring" unicode="å" d="M503 580 q57 0 97.5 -40.5 q40.5 -40.5 40.5 -97.5 l0 -442 l-451 0 q-57 0 -97.5 40.5 q-40.5 40.5 -40.5 97.5 l0 218 l458 0 l0 86 q0 7 -7 7 l-451 0 l0 131 l451 0 ZM510 131 l0 93 l-327 0 l0 -86 q0 -7 7 -7 l320 0 ZM332 858 l54 0 q27 0 46 -19.5 q19 -19.5 19 -45.5 l0 -51 q0 -26 -19 -45.5 q-19 -19.5 -46 -19.5 l-54 0 q-27 0 -46 19.5 q-19 19.5 -19 45.5 l0 51 q0 26 19 45.5 q19 19.5 46 19.5 ZM333 791 l0 -47 l52 0 l0 47 l-52 0 Z" /><glyph glyph-name="ae" unicode="¾æ" d="M963 580 q57 0 97 -40.5 q40 -40.5 40 -97.5 l0 -218 l-458 0 l0 -88 q0 -5 7 -5 l451 0 l0 -131 l-910 0 q-57 0 -97 40.5 q-40 40.5 -40 97.5 l0 218 l458 0 l0 86 q0 7 -7 7 l-451 0 l0 131 l910 0 ZM511 131 l0 93 l-327 0 l0 -86 q0 -7 6 -7 l321 0 ZM642 356 l327 0 l0 86 q0 7 -6 7 l-314 0 q-7 0 -7 -7 l0 -86 Z" /><glyph glyph-name="ccedilla" unicode="ç" d="M189 131 l451 0 l0 -131 l-207 0 l-38 -154 l-133 0 l38 154 l-111 0 q-57 0 -97.5 40.5 q-40.5 40.5 -40.5 97.5 l0 304 q0 57 40.5 97.5 q40.5 40.5 97.5 40.5 l449 0 l0 -131 l-449 0 q-7 0 -7 -7 l0 -304 q0 -7 7 -7 Z" /><glyph glyph-name="egrave" unicode="è" d="M502 580 q57 0 97.5 -40.5 q40.5 -40.5 40.5 -97.5 l0 -218 l-458 0 l0 -86 q0 -7 7 -7 l451 0 l0 -131 l-451 0 q-57 0 -97.5 40.5 q-40.5 40.5 -40.5 97.5 l0 304 q0 57 40.5 97.5 q40.5 40.5 97.5 40.5 l313 0 ZM182 356 l327 0 l0 86 q0 7 -7 7 l-313 0 q-7 0 -7 -7 l0 -86 ZM378 860 l46 -183 l-133 0 l-46 183 l133 0 Z" /><glyph glyph-name="eacute" unicode="é" d="M502 580 q57 0 97.5 -40.5 q40.5 -40.5 40.5 -97.5 l0 -218 l-458 0 l0 -86 q0 -7 7 -7 l451 0 l0 -131 l-451 0 q-57 0 -97.5 40.5 q-40.5 40.5 -40.5 97.5 l0 304 q0 57 40.5 97.5 q40.5 40.5 97.5 40.5 l313 0 ZM182 356 l327 0 l0 86 q0 7 -7 7 l-313 0 q-7 0 -7 -7 l0 -86 ZM245 678 l46 183 l133 0 l-46 -183 l-133 0 Z" /><glyph glyph-name="ecircumflex" unicode="ê" d="M502 580 q57 0 97.5 -40.5 q40.5 -40.5 40.5 -97.5 l0 -218 l-458 0 l0 -86 q0 -7 7 -7 l451 0 l0 -131 l-451 0 q-57 0 -97.5 40.5 q-40.5 40.5 -40.5 97.5 l0 304 q0 57 40.5 97.5 q40.5 40.5 97.5 40.5 l313 0 ZM182 356 l327 0 l0 86 q0 7 -7 7 l-313 0 q-7 0 -7 -7 l0 -86 ZM301 677 l-104 0 l98 163 l87 0 l98 -163 l-106 0 l-37 59 q-6 -9 -18 -29.5 q-12 -20.5 -18 -29.5 Z" /><glyph glyph-name="edieresis" unicode="ë" d="M502 580 q57 0 97.5 -40.5 q40.5 -40.5 40.5 -97.5 l0 -218 l-458 0 l0 -86 q0 -7 7 -7 l451 0 l0 -131 l-451 0 q-57 0 -97.5 40.5 q-40.5 40.5 -40.5 97.5 l0 304 q0 57 40.5 97.5 q40.5 40.5 97.5 40.5 l313 0 ZM182 356 l327 0 l0 86 q0 7 -7 7 l-313 0 q-7 0 -7 -7 l0 -86 ZM483 809 l0 -132 l-132 0 l0 132 l132 0 ZM311 809 l0 -132 l-131 0 l0 132 l131 0 Z" /><glyph glyph-name="igrave" unicode="ì" d="M56 0 l0 580 l131 0 l0 -580 l-131 0 ZM149 861 l46 -183 l-133 0 l-46 183 l133 0 Z" /><glyph glyph-name="iacute" unicode="í" d="M51 0 l0 580 l131 0 l0 -580 l-131 0 ZM49 677 l46 183 l133 0 l-46 -183 l-133 0 Z" /><glyph glyph-name="icircumflex" unicode="î" d="M51 0 l0 580 l131 0 l0 -580 l-131 0 ZM89 677 l-104 0 l98 163 l87 0 l98 -163 l-106 0 l-37 59 q-6 -9 -18 -29.5 q-12 -20.5 -18 -29.5 Z" /><glyph glyph-name="idieresis" unicode="ï" d="M55 0 l0 580 l131 0 l0 -580 l-131 0 ZM271 811 l0 -132 l-132 0 l0 132 l132 0 ZM99 811 l0 -132 l-131 0 l0 132 l131 0 Z" /><glyph glyph-name="ntilde" unicode="ñ" d="M505 580 q57 0 97.5 -40.5 q40.5 -40.5 40.5 -97.5 l0 -442 l-131 0 l0 442 q0 7 -7 7 l-313 0 q-7 0 -7 -7 l0 -442 l-131 0 l0 580 l451 0 ZM455 770 q47 0 87 27 l0 -96 q-52 -22 -89 -22 q-36 0 -96 32.5 q-60 32.5 -94 32.5 l-12 0 q-44 0 -73 -38 l0 111 q45 18 85 18 q39 0 99.5 -30.5 q60.5 -30.5 92.5 -34.5 Z" /><glyph glyph-name="ograve" unicode="ò" d="M189 580 l313 0 q57 0 97.5 -40.5 q40.5 -40.5 40.5 -97.5 l0 -304 q0 -57 -40.5 -97.5 q-40.5 -40.5 -97.5 -40.5 l-313 0 q-57 0 -97.5 40.5 q-40.5 40.5 -40.5 97.5 l0 304 q0 57 40.5 97.5 q40.5 40.5 97.5 40.5 ZM502 449 l-313 0 q-7 0 -7 -7 l0 -304 q0 -7 7 -7 l313 0 q7 0 7 7 l0 304 q0 7 -7 7 ZM405 861 l46 -183 l-133 0 l-46 183 l133 0 Z" /><glyph glyph-name="oacute" unicode="ó" d="M189 580 l313 0 q57 0 97.5 -40.5 q40.5 -40.5 40.5 -97.5 l0 -304 q0 -57 -40.5 -97.5 q-40.5 -40.5 -97.5 -40.5 l-313 0 q-57 0 -97.5 40.5 q-40.5 40.5 -40.5 97.5 l0 304 q0 57 40.5 97.5 q40.5 40.5 97.5 40.5 ZM502 449 l-313 0 q-7 0 -7 -7 l0 -304 q0 -7 7 -7 l313 0 q7 0 7 7 l0 304 q0 7 -7 7 ZM272 678 l46 183 l133 0 l-46 -183 l-133 0 Z" /><glyph glyph-name="ocircumflex" unicode="ô" d="M189 580 l313 0 q57 0 97.5 -40.5 q40.5 -40.5 40.5 -97.5 l0 -304 q0 -57 -40.5 -97.5 q-40.5 -40.5 -97.5 -40.5 l-313 0 q-57 0 -97.5 40.5 q-40.5 40.5 -40.5 97.5 l0 304 q0 57 40.5 97.5 q40.5 40.5 97.5 40.5 ZM502 449 l-313 0 q-7 0 -7 -7 l0 -304 q0 -7 7 -7 l313 0 q7 0 7 7 l0 304 q0 7 -7 7 ZM328 677 l-104 0 l98 163 l87 0 l98 -163 l-106 0 l-37 59 q-6 -9 -18 -29.5 q-12 -20.5 -18 -29.5 Z" /><glyph glyph-name="otilde" unicode="õ" d="M189 580 l313 0 q57 0 97.5 -40.5 q40.5 -40.5 40.5 -97.5 l0 -304 q0 -57 -40.5 -97.5 q-40.5 -40.5 -97.5 -40.5 l-313 0 q-57 0 -97.5 40.5 q-40.5 40.5 -40.5 97.5 l0 304 q0 57 40.5 97.5 q40.5 40.5 97.5 40.5 ZM502 449 l-313 0 q-7 0 -7 -7 l0 -304 q0 -7 7 -7 l313 0 q7 0 7 7 l0 304 q0 7 -7 7 ZM447 770 q47 0 87 27 l0 -96 q-52 -22 -89 -22 q-36 0 -96 32.5 q-60 32.5 -94 32.5 l-12 0 q-44 0 -73 -38 l0 111 q45 18 85 18 q39 0 99.5 -30.5 q60.5 -30.5 92.5 -34.5 Z" /><glyph glyph-name="odieresis" unicode="ö" d="M189 580 l313 0 q57 0 97.5 -40.5 q40.5 -40.5 40.5 -97.5 l0 -304 q0 -57 -40.5 -97.5 q-40.5 -40.5 -97.5 -40.5 l-313 0 q-57 0 -97.5 40.5 q-40.5 40.5 -40.5 97.5 l0 304 q0 57 40.5 97.5 q40.5 40.5 97.5 40.5 ZM502 449 l-313 0 q-7 0 -7 -7 l0 -304 q0 -7 7 -7 l313 0 q7 0 7 7 l0 304 q0 7 -7 7 ZM510 811 l0 -132 l-132 0 l0 132 l132 0 ZM338 811 l0 -132 l-131 0 l0 132 l131 0 Z" /><glyph glyph-name="divide" unicode="÷" d="M503 361 l0 -131 l-485 0 l0 131 l485 0 ZM201 132 l131 0 l0 -131 l-131 0 l0 131 ZM332 589 l0 -132 l-131 0 l0 132 l131 0 Z" /><glyph glyph-name="ugrave" unicode="ù" d="M511 580 l131 0 l0 -442 q0 -57 -40.5 -97.5 q-40.5 -40.5 -97.5 -40.5 l-313 0 q-58 0 -98 40.5 q-40 40.5 -40 97.5 l0 442 l131 0 l0 -442 q0 -7 7 -7 l313 0 q7 0 7 7 l0 442 ZM406 861 l46 -183 l-133 0 l-46 183 l133 0 Z" /><glyph glyph-name="uacute" unicode="ú" d="M511 580 l131 0 l0 -442 q0 -57 -40.5 -97.5 q-40.5 -40.5 -97.5 -40.5 l-313 0 q-58 0 -98 40.5 q-40 40.5 -40 97.5 l0 442 l131 0 l0 -442 q0 -7 7 -7 l313 0 q7 0 7 7 l0 442 ZM273 678 l46 183 l133 0 l-46 -183 l-133 0 Z" /><glyph glyph-name="ucircumflex" unicode="û" d="M511 580 l131 0 l0 -442 q0 -57 -40.5 -97.5 q-40.5 -40.5 -97.5 -40.5 l-313 0 q-58 0 -98 40.5 q-40 40.5 -40 97.5 l0 442 l131 0 l0 -442 q0 -7 7 -7 l313 0 q7 0 7 7 l0 442 ZM329 678 l-104 0 l98 163 l87 0 l98 -163 l-106 0 l-37 59 q-6 -9 -18 -29.5 q-12 -20.5 -18 -29.5 Z" /><glyph glyph-name="udieresis" unicode="ü" d="M511 580 l131 0 l0 -442 q0 -57 -40.5 -97.5 q-40.5 -40.5 -97.5 -40.5 l-313 0 q-58 0 -98 40.5 q-40 40.5 -40 97.5 l0 442 l131 0 l0 -442 q0 -7 7 -7 l313 0 q7 0 7 7 l0 442 ZM511 809 l0 -132 l-132 0 l0 132 l132 0 ZM339 809 l0 -132 l-131 0 l0 132 l131 0 Z" /><glyph glyph-name="yacute" unicode="ý" d="M631 -92 q0 -57 -40 -97.5 q-40 -40.5 -97 -40.5 l-355 0 l0 132 l355 0 q6 0 6 6 l0 92 l-320 0 q-57 0 -97.5 40.5 q-40.5 40.5 -40.5 97.5 l0 440 l131 0 l0 -440 q0 -7 7 -7 l314 0 q6 0 6 7 l0 440 l131 0 l0 -670 ZM270 678 l46 183 l133 0 l-46 -183 l-133 0 Z" /><glyph glyph-name="ydieresis" unicode="øÿ" d="M631 -92 q0 -57 -40 -97.5 q-40 -40.5 -97 -40.5 l-355 0 l0 132 l355 0 q6 0 6 6 l0 92 l-320 0 q-57 0 -97.5 40.5 q-40.5 40.5 -40.5 97.5 l0 440 l131 0 l0 -440 q0 -7 7 -7 l314 0 q6 0 6 7 l0 440 l131 0 l0 -670 ZM508 811 l0 -132 l-132 0 l0 132 l132 0 ZM336 811 l0 -132 l-131 0 l0 132 l131 0 Z" /><glyph glyph-name="dotlessi" unicode="&#x131;" d="M52 0 l0 580 l131 0 l0 -580 l-131 0 Z" /><glyph glyph-name="OE" unicode="&#x152;" d="M773 588 l0 -162 l426 0 l0 -132 l-426 0 l0 -162 l530 0 l0 -132 l-1111 0 q-57 0 -98 40.5 q-41 40.5 -41 98.5 l0 442 q0 58 41 98.5 q41 40.5 98 40.5 l1111 0 l0 -132 l-530 0 ZM634 132 q7 0 7 7 l0 442 q0 7 -7 7 l-442 0 q-6 0 -6 -7 l0 -442 q0 -7 6 -7 l442 0 Z" /><glyph glyph-name="oe" unicode="&#x153;" d="M1099 224 l-458 0 l0 -86 q0 -7 7 -7 l451 0 l0 -131 l-909 0 q-58 0 -98 40.5 q-40 40.5 -40 97.5 l0 304 q0 57 40 97.5 q40 40.5 98 40.5 l772 0 q57 0 97 -40.5 q40 -40.5 40 -97.5 l0 -218 ZM648 449 q-7 0 -7 -7 l0 -86 l327 0 l0 86 q0 7 -6 7 l-314 0 ZM503 131 q7 0 7 7 l0 304 q0 7 -7 7 l-313 0 q-7 0 -7 -7 l0 -304 q0 -7 7 -7 l313 0 Z" /><glyph glyph-name="Scaron" unicode="&#x160;" d="M771 581 l0 -55 l-133 0 l0 55 q0 7 -6 7 l-442 0 q-7 0 -7 -7 l0 -148 q0 -7 7 -7 l442 0 q57 0 98 -40.5 q41 -40.5 41 -98.5 l0 -148 q0 -58 -41 -98.5 q-41 -40.5 -98 -40.5 l-442 0 q-58 0 -98.5 40.5 q-40.5 40.5 -40.5 98.5 l0 55 l132 0 l0 -55 q0 -7 7 -7 l442 0 q6 0 6 7 l0 148 q0 7 -6 7 l-442 0 q-58 0 -98.5 40.5 q-40.5 40.5 -40.5 98.5 l0 148 q0 58 40.5 98.5 q40.5 40.5 98.5 40.5 l442 0 q57 0 98 -40.5 q41 -40.5 41 -98.5 ZM289 941 l103 0 l37 -59 l37 59 l106 0 l-98 -163 l-87 0 l-98 163 Z" /><glyph glyph-name="scaron" unicode="&#x161;" d="M637 442 l0 -25 l-131 0 l0 25 q0 7 -7 7 l-313 0 q-7 0 -7 -7 l0 -80 q0 -6 7 -6 l313 0 q58 0 98 -40.5 q40 -40.5 40 -97.5 l0 -80 q0 -57 -40 -97.5 q-40 -40.5 -98 -40.5 l-313 0 q-57 0 -97.5 40.5 q-40.5 40.5 -40.5 97.5 l0 25 l131 0 l0 -25 q0 -7 7 -7 l313 0 q7 0 7 7 l0 80 q0 6 -7 6 l-313 0 q-57 0 -97.5 40.5 q-40.5 40.5 -40.5 97.5 l0 80 q0 57 40.5 97.5 q40.5 40.5 97.5 40.5 l313 0 q58 0 98 -40.5 q40 -40.5 40 -97.5 ZM221 840 l103 0 l37 -59 l37 59 l106 0 l-98 -163 l-87 0 l-98 163 Z" /><glyph glyph-name="Ydieresis" unicode="&#x178;" d="M657 720 l158 0 l-333 -451 l0 -269 l-132 0 l0 269 l-333 451 l157 0 l242 -306 l241 306 ZM567 911 l0 -132 l-132 0 l0 132 l132 0 ZM395 911 l0 -132 l-131 0 l0 132 l131 0 Z" /><glyph glyph-name="Zcaron" unicode="&#x17d;" d="M51 588 l0 132 l720 0 l0 -144 l-528 -444 l528 0 l0 -132 l-720 0 l0 144 l528 444 l-528 0 ZM288 941 l103 0 l37 -59 l37 59 l106 0 l-98 -163 l-87 0 l-98 163 Z" /><glyph glyph-name="zcaron" unicode="&#x17e;" d="M54 449 l0 131 l589 0 l0 -143 l-396 -306 l396 0 l0 -131 l-589 0 l0 143 l396 306 l-396 0 ZM227 843 l103 0 l37 -59 l37 59 l106 0 l-98 -163 l-87 0 l-98 163 Z" /><glyph glyph-name="circumflex" unicode="&#x2c6;" d="M132 785 l-104 0 l98 163 l87 0 l98 -163 l-106 0 l-37 59 q-6 -9 -18 -29.5 q-12 -20.5 -18 -29.5 Z" /><glyph glyph-name="caron" unicode="&#x2c7;" d="M27 948 l103 0 l37 -59 l37 59 l106 0 l-98 -163 l-87 0 l-98 163 Z" /><glyph glyph-name="breve" unicode="&#x2d8;" d="M189 895 l76 0 l0 -21 q0 -37 -25 -62.5 q-25 -25.5 -63 -25.5 l-49 0 q-38 0 -63 25.5 q-25 25.5 -25 62.5 l0 21 l77 0 l0 -31 l72 0 l0 31 Z" /><glyph glyph-name="dotaccent" unicode="&#x2d9;" d="M111 949 l34 0 q27 0 46.5 -19.5 q19.5 -19.5 19.5 -45.5 l0 -32 q0 -26 -19.5 -45.5 q-19.5 -19.5 -46.5 -19.5 l-34 0 q-27 0 -46.5 19.5 q-19.5 19.5 -19.5 45.5 l0 32 q0 26 19.5 45.5 q19.5 19.5 46.5 19.5 Z" /><glyph glyph-name="ring" unicode="&#x2da;" d="M87 968 l54 0 q27 0 46 -19.5 q19 -19.5 19 -45.5 l0 -51 q0 -26 -19 -45.5 q-19 -19.5 -46 -19.5 l-54 0 q-27 0 -46 19.5 q-19 19.5 -19 45.5 l0 51 q0 26 19 45.5 q19 19.5 46 19.5 ZM88 901 l0 -47 l52 0 l0 47 l-52 0 Z" /><glyph glyph-name="tilde" unicode="&#x2dc;" d="M300 881 q46 0 87 27 l0 -96 q-52 -22 -89 -22 q-36 0 -96 32.5 q-60 32.5 -94 32.5 l-12 0 q-44 0 -73 -38 l0 111 q45 18 85 18 q38 0 99 -30.5 q61 -30.5 93 -34.5 Z" /><glyph glyph-name="endash" unicode="ð&#x2013;" d="M653 360 l0 -131 l-599 0 l0 131 l599 0 Z" /><glyph glyph-name="emdash" unicode="&#x2014;" d="M762 360 l0 -131 l-708 0 l0 131 l708 0 Z" /><glyph glyph-name="quoteleft" unicode="&#x2018;" d="M165 467 l-131 0 l0 117 q0 52 37.5 91 q37.5 39 93.5 48 l0 -256 Z" /><glyph glyph-name="quoteright" unicode="&#x2019;" d="M54 720 l131 0 l0 -117 q0 -51 -37.5 -90 q-37.5 -39 -93.5 -49 l0 256 Z" /><glyph glyph-name="quotedblleft" unicode="&#x201c;" d="M176 467 l-131 0 l0 117 q0 52 37.5 91 q37.5 39 93.5 48 l0 -256 ZM349 467 l-131 0 l0 117 q0 52 37.5 91 q37.5 39 93.5 48 l0 -256 Z" /><glyph glyph-name="quotedblright" unicode="&#x201d;" d="M226 720 l132 0 l0 -117 q0 -51 -37.5 -90 q-37.5 -39 -94.5 -49 l0 256 ZM54 720 l131 0 l0 -117 q0 -51 -37.5 -90 q-37.5 -39 -93.5 -49 l0 256 Z" /><glyph glyph-name="bullet" unicode="¥&#x2022;" d="M172 420 l22 0 q55 0 55 -54 l0 -19 q0 -54 -55 -54 l-22 0 q-54 0 -54 54 l0 19 q0 54 54 54 Z" /><glyph glyph-name="ellipsis" unicode="&#x2026;" d="M366 131 l0 -131 l-132 0 l0 131 l132 0 ZM546 131 l0 -131 l-131 0 l0 131 l131 0 ZM185 131 l0 -131 l-131 0 l0 131 l131 0 Z" /><glyph glyph-name="Euro" unicode="&#x20ac;" d="M268 131 l478 0 l0 -131 l-478 0 q-57 0 -97.5 40.5 q-40.5 40.5 -40.5 97.5 l0 59 l-95 0 l0 131 l95 0 l0 57 l-95 0 l0 131 l95 0 l0 66 q0 57 40.5 97.5 q40.5 40.5 97.5 40.5 l478 0 l0 -131 l-478 0 q-7 0 -7 -7 l0 -66 l382 0 l0 -131 l-382 0 l0 -57 l382 0 l0 -131 l-382 0 l0 -59 q0 -7 7 -7 Z" /><glyph glyph-name="minus" unicode="&#x2212;" d="M468 361 l0 -131 l-409 0 l0 131 l409 0 Z" /><glyph glyph-name="uniE000" unicode="&#xe000;" d="" /><glyph glyph-name="seven.alt" unicode="&#xe002;" d="M46 720 l714 0 l0 -33 l-571 -687 l-143 0 l0 33 l461 556 l-461 0 l0 131 Z" /><glyph glyph-name="nine.alt" unicode="&#xe003;" d="M150 718 l438 0 q57 0 97 -40.5 q40 -40.5 40 -97.5 l0 -580 l-131 0 l0 280 q0 7 -6 7 l-438 0 q-57 0 -97.5 40 q-40.5 40 -40.5 97 l0 156 q0 57 40.5 97.5 q40.5 40.5 97.5 40.5 ZM594 418 l0 162 q0 7 -6 7 l-438 0 q-6 0 -6 -7 l0 -156 q0 -6 6 -6 l444 0 Z" /><glyph glyph-name="two.alt" unicode="&#xe005;" d="M761 464 l-111 -57 l-469 -251 l0 -25 l580 0 l0 -131 l-576 0 q-48 0 -86 31 q-38 31 -49 77 l-1 128 l580 308 l0 45 l-442 0 q-6 0 -6 -7 l0 -66 l-132 0 l0 66 q0 57 40.5 97.5 q40.5 40.5 97.5 40.5 l438 0 q50 0 88.5 -32.5 q38.5 -32.5 47.5 -81.5 l0 -142 Z" /><glyph glyph-name="question.alt" unicode="&#xe006;" d="M163 720 l342 0 q57 0 97.5 -40.5 q40.5 -40.5 40.5 -97.5 l0 -175 q0 -57 -40.5 -97.5 q-40.5 -40.5 -97.5 -40.5 l-181 0 q-6 0 -6 -6 l0 -102 l-132 0 l0 102 q0 57 40.5 97.5 q40.5 40.5 97.5 40.5 l181 0 q7 0 7 6 l0 175 q0 7 -7 7 l-347 0 l0 -103 l-131 0 l0 119 q8 49 46.5 82 q38.5 33 89.5 33 ZM318 0 l-132 0 l0 131 l132 0 l0 -131 Z" /><glyph glyph-name="four.alt" unicode="&#xe007;" d="M593 312 l101 0 l0 -131 l-101 0 l0 -181 l-131 0 l0 181 l-453 0 l0 122 l356 417 l123 0 l0 -67 l-309 -341 l283 0 l0 142 l131 0 l0 -142 Z" /><glyph glyph-name="V.alt" unicode="&#xe00a;" d="M54 720 l131 0 l0 -530 l440 530 l142 0 l0 -40 l-570 -680 l-143 0 l0 720 Z" /><glyph glyph-name="A.alt" unicode="&#xe00b;" d="M0 0 l0 33 l570 687 l143 0 l0 -720 l-132 0 l0 183 l-285 0 l-153 -183 l-143 0 ZM581 523 l-175 -209 l175 0 l0 209 Z" /><glyph glyph-name="A.alt2" unicode="&#xe00c;" d="M54 720 l143 0 l570 -687 l0 -33 l-142 0 l-154 183 l-286 0 l0 -183 l-131 0 l0 720 ZM185 521 l0 -207 l176 0 l-176 207 Z" /></font>
</defs>
</svg>
