<?xml version="1.0" standalone="no"?><!DOCTYPE svg PUBLIC "-//W3C//DTD SVG 1.1//EN" "http://www.w3.org/Graphics/SVG/1.1/DTD/svg11.dtd" ><svg xmlns="http://www.w3.org/2000/svg"><metadata></metadata><defs><font id="MattMcInerney: Orbitron Medium: 2009" horiz-adv-x="1375"><font-face font-family="Orbitron" font-weight="500" font-stretch="normal" units-per-em="1000" panose-1="2 0 0 0 0 0 0 0 0 0" ascent="750" descent="-250" x-height="0" bbox="-187 -230 1326 989" underline-thickness="50" underline-position="-75" unicode-range="U+0020-e00c" /><missing-glyph horiz-adv-x="0"  /><glyph glyph-name=".null" unicode="" d="" /><glyph glyph-name="nonmarkingreturn" unicode="" d="" /><glyph glyph-name="space" unicode=" " d="" /><glyph glyph-name="exclam" unicode="!" d="M166 0 l-108 0 l0 108 l108 0 l0 -108 ZM58 200 l0 520 l108 0 l0 -520 l-108 0 Z" /><glyph glyph-name="quotedbl" unicode="&quot;" d="M167 719 l0 -162 l-108 0 l0 162 l108 0 ZM314 719 l0 -162 l-108 0 l0 162 l108 0 Z" /><glyph glyph-name="numbersign" unicode="#" d="M765 558 l0 -108 l-119 0 l-58 -178 l146 0 l0 -108 l-180 0 l-50 -164 l-108 0 l50 164 l-215 0 l-50 -164 l-108 0 l50 164 l-91 0 l0 108 l125 0 l58 178 l-152 0 l0 108 l186 0 l54 159 l108 0 l-54 -159 l215 0 l54 159 l108 0 l-54 -159 l85 0 ZM265 272 l215 0 l58 178 l-215 0 l-58 -178 Z" /><glyph glyph-name="dollar" unicode="$" d="M754 590 l0 -42 l-108 0 l0 42 q0 9 -6.5 15.5 q-6.5 6.5 -15.5 6.5 l-176 0 l0 -198 l176 0 q54 0 92 -38 q38 -38 38 -92 l0 -154 q0 -54 -38 -92 q-38 -38 -92 -38 l-176 0 l0 -108 l-108 0 l0 108 l-176 0 q-54 0 -92 38 q-38 38 -38 92 l0 42 l108 0 l0 -42 q0 -9 6.5 -15.5 q6.5 -6.5 15.5 -6.5 l176 0 l0 198 l-176 0 q-54 0 -92 38 q-38 38 -38 92 l0 154 q0 54 38 92 q38 38 92 38 l176 0 l0 108 l108 0 l0 -108 l176 0 q54 0 92 -38 q38 -38 38 -92 ZM624 306 l-176 0 l0 -198 l176 0 q9 0 15.5 6.5 q6.5 6.5 6.5 15.5 l0 154 q0 9 -6.5 15.5 q-6.5 6.5 -15.5 6.5 ZM261 414 l79 0 l0 198 l-176 0 q-9 0 -15.5 -6.5 q-6.5 -6.5 -6.5 -15.5 l0 -154 q0 -9 6.5 -15.5 q6.5 -6.5 15.5 -6.5 l97 0 Z" /><glyph glyph-name="percent" unicode="%" d="M837 720 l15 0 l0 -128 l-705 -592 l-15 0 l0 128 l705 592 ZM178 720 l90 0 q54 0 92 -38 q38 -38 38 -92 l0 -80 q0 -54 -38 -92 q-38 -38 -92 -38 l-90 0 q-54 0 -92 38 q-38 38 -38 92 l0 80 q0 54 38 92 q38 38 92 38 ZM158 468 l130 0 q9 0 15.5 6.5 q6.5 6.5 6.5 15.5 l0 120 q0 9 -6.5 15.5 q-6.5 6.5 -15.5 6.5 l-130 0 q-9 0 -15.5 -6.5 q-6.5 -6.5 -6.5 -15.5 l0 -120 q0 -9 6.5 -15.5 q6.5 -6.5 15.5 -6.5 ZM696 339 l90 0 q54 0 92 -38 q38 -38 38 -92 l0 -80 q0 -54 -38 -92 q-38 -38 -92 -38 l-90 0 q-54 0 -92 38 q-38 38 -38 92 l0 80 q0 54 38 92 q38 38 92 38 ZM676 87 l130 0 q9 0 15.5 6.5 q6.5 6.5 6.5 15.5 l0 120 q0 9 -6.5 15.5 q-6.5 6.5 -15.5 6.5 l-130 0 q-9 0 -15.5 -6.5 q-6.5 -6.5 -6.5 -15.5 l0 -120 q0 -9 6.5 -15.5 q6.5 -6.5 15.5 -6.5 Z" /><glyph glyph-name="ampersand" unicode="&amp;" d="M773 181 l127 -74 l0 -104 l-137 78 q-14 -36 -46.5 -58.5 q-32.5 -22.5 -73.5 -22.5 l-460 0 q-54 0 -92 38 q-38 38 -38 92 l0 204 q0 25 18 50.5 q18 25.5 47 25.5 q-25 19 -25 76 l0 104 q0 54 38 92 q38 38 92 38 l390 0 q48 0 85 -31 q37 -31 45 -77 l0 -71 l-108 0 l0 48 q0 9 -6.5 15.5 q-6.5 6.5 -15.5 6.5 l-390 0 q-9 0 -15.5 -6.5 q-6.5 -6.5 -6.5 -15.5 l0 -132 l464 -234 l0 123 l108 0 l0 -165 ZM183 108 l460 0 q14 0 19 12 l-468 236 l-11 0 q-9 0 -15.5 -6.5 q-6.5 -6.5 -6.5 -15.5 l0 -204 q0 -9 6.5 -15.5 q6.5 -6.5 15.5 -6.5 Z" /><glyph glyph-name="quotesingle" unicode="&#39;" d="M167 719 l0 -162 l-108 0 l0 162 l108 0 Z" /><glyph glyph-name="parenleft" unicode="(" d="M182 108 l42 0 l0 -108 l-42 0 q-54 0 -92 38 q-38 38 -38 92 l0 460 q0 54 38 92 q38 38 92 38 l42 0 l0 -108 l-42 0 q-9 0 -15.5 -6.5 q-6.5 -6.5 -6.5 -15.5 l0 -460 q0 -9 6.5 -15.5 q6.5 -6.5 15.5 -6.5 Z" /><glyph glyph-name="parenright" unicode=")" d="M56 0 l0 108 l42 0 q9 0 15.5 6.5 q6.5 6.5 6.5 15.5 l0 460 q0 9 -6.5 15.5 q-6.5 6.5 -15.5 6.5 l-42 0 l0 108 l42 0 q53 0 91.5 -38 q38.5 -38 38.5 -92 l0 -460 q0 -54 -38.5 -92 q-38.5 -38 -91.5 -38 l-42 0 Z" /><glyph glyph-name="asterisk" unicode="*" d="M432 623 l34 -103 l-133 -43 l82 -114 l-87 -63 l-83 113 l-82 -113 l-87 63 l82 114 l-133 43 l33 103 l133 -44 l0 140 l108 0 l0 -140 l133 44 Z" /><glyph glyph-name="plus" unicode="+" d="M161 495 l108 0 l0 -145 l148 0 l0 -108 l-148 0 l0 -147 l-108 0 l0 147 l-144 0 l0 108 l144 0 l0 145 Z" /><glyph glyph-name="comma" unicode="," d="M54 108 l108 0 l0 -108 q0 -48 -31 -84 q-31 -36 -77 -44 l0 236 Z" /><glyph glyph-name="hyphen" unicode="-" d="M459 350 l0 -108 l-400 0 l0 108 l400 0 Z" /><glyph glyph-name="period" unicode="." d="M162 108 l0 -108 l-108 0 l0 108 l108 0 Z" /><glyph glyph-name="slash" unicode="/" d="M6 128 l495 592 l15 0 l0 -128 l-495 -592 l-15 0 l0 128 Z" /><glyph glyph-name="zero" unicode="0" d="M187 720 l460 0 q54 0 92 -38 q38 -38 38 -92 l0 -460 q0 -54 -38 -92 q-38 -38 -92 -38 l-460 0 q-54 0 -92 38 q-38 38 -38 92 l0 460 q0 54 38 92 q38 38 92 38 ZM633 612 l-446 0 q-9 0 -15.5 -6.5 q-6.5 -6.5 -6.5 -15.5 l0 -371 l468 393 ZM201 108 l446 0 q9 0 15.5 6.5 q6.5 6.5 6.5 15.5 l0 371 l-468 -393 Z" /><glyph glyph-name="one" unicode="1" d="M1 477 l203 243 l129 0 l0 -720 l-108 0 l0 576 l-83 -99 l-141 0 Z" /><glyph glyph-name="two" unicode="2" d="M187 720 l460 0 q54 0 92 -38 q38 -38 38 -92 l0 -164 q0 -54 -38 -92 q-38 -38 -92 -38 l-460 0 q-9 0 -15.5 -6.5 q-6.5 -6.5 -6.5 -15.5 l0 -144 q0 -9 6.5 -15.5 q6.5 -6.5 15.5 -6.5 l590 0 l0 -108 l-720 0 l0 274 q0 54 38 92 q38 38 92 38 l460 0 q9 0 15.5 6.5 q6.5 6.5 6.5 15.5 l0 164 q0 9 -6.5 15.5 q-6.5 6.5 -15.5 6.5 l-460 0 q-9 0 -15.5 -6.5 q-6.5 -6.5 -6.5 -15.5 l0 -42 l-108 0 l0 42 q0 54 38 92 q38 38 92 38 Z" /><glyph glyph-name="three" unicode="3" d="M730 387 q43 -38 43 -96 l0 -161 q0 -54 -38 -92 q-38 -38 -92 -38 l-460 0 q-54 0 -92 38 q-38 38 -38 92 l0 30 l108 0 l0 -30 q0 -9 6.5 -15.5 q6.5 -6.5 15.5 -6.5 l460 0 q9 0 15.5 6.5 q6.5 6.5 6.5 15.5 l0 161 q0 9 -6.5 15.5 q-6.5 6.5 -15.5 6.5 l-460 0 l0 108 l430 0 q9 0 15.5 6.5 q6.5 6.5 6.5 15.5 l0 147 q0 9 -6.5 15.5 q-6.5 6.5 -15.5 6.5 l-430 0 q-9 0 -15.5 -6.5 q-6.5 -6.5 -6.5 -15.5 l0 -40 l-108 0 l0 40 q0 54 38 92 q38 38 92 38 l430 0 q54 0 92 -38 q38 -38 38 -92 l0 -147 q0 -28 -13 -56 Z" /><glyph glyph-name="four" unicode="4" d="M590 291 l106 0 l0 -108 l-106 0 l0 -183 l-108 0 l0 183 l-476 0 l0 108 l476 429 l108 0 l0 -429 ZM482 550 l-319 -259 l319 0 l0 259 Z" /><glyph glyph-name="five" unicode="5" d="M165 590 l0 -144 q0 -9 6.5 -15.5 q6.5 -6.5 15.5 -6.5 l460 0 q54 0 92 -38 q38 -38 38 -92 l0 -164 q0 -54 -38 -92 q-38 -38 -92 -38 l-460 0 q-54 0 -92 38 q-38 38 -38 92 l0 42 l108 0 l0 -42 q0 -9 6.5 -15.5 q6.5 -6.5 15.5 -6.5 l460 0 q9 0 15.5 6.5 q6.5 6.5 6.5 15.5 l0 164 q0 9 -6.5 15.5 q-6.5 6.5 -15.5 6.5 l-590 0 l0 108 l2 0 q-2 14 -2 22 l0 274 l720 0 l0 -108 l-590 0 q-9 0 -15.5 -6.5 q-6.5 -6.5 -6.5 -15.5 Z" /><glyph glyph-name="six" unicode="6" d="M527 424 l120 0 q54 0 92 -38 q38 -38 38 -92 l0 -164 q0 -54 -38 -92 q-38 -38 -92 -38 l-460 0 q-54 0 -92 38 q-38 38 -38 92 l0 460 q0 54 38 92 q38 38 92 38 l470 0 l0 -108 l-470 0 q-9 0 -15.5 -6.5 q-6.5 -6.5 -6.5 -15.5 l0 -144 q0 -9 6.5 -15.5 q6.5 -6.5 15.5 -6.5 l340 0 ZM669 130 l0 164 q0 9 -6.5 15.5 q-6.5 6.5 -15.5 6.5 l-482 0 l0 -186 q0 -9 6.5 -15.5 q6.5 -6.5 15.5 -6.5 l460 0 q9 0 15.5 6.5 q6.5 6.5 6.5 15.5 Z" /><glyph glyph-name="seven" unicode="7" d="M13 720 l460 0 q54 0 92 -38 q38 -38 38 -92 l0 -590 l-108 0 l0 590 q0 9 -6.5 15.5 q-6.5 6.5 -15.5 6.5 l-470 0 l0 108 l10 0 Z" /><glyph glyph-name="eight" unicode="8" d="M777 612 l0 -166 q0 -43 -25 -76 q25 -33 25 -76 l0 -164 q0 -54 -38 -92 q-38 -38 -92 -38 l-460 0 q-54 0 -92 38 q-38 38 -38 92 l0 164 q0 43 25 76 q-25 33 -25 76 l0 144 q0 54 38 92 q38 38 92 38 l460 0 q48 0 85 -31 q37 -31 45 -77 ZM669 130 l0 164 q0 9 -6.5 15.5 q-6.5 6.5 -15.5 6.5 l-460 0 q-9 0 -15.5 -6.5 q-6.5 -6.5 -6.5 -15.5 l0 -164 q0 -9 6.5 -15.5 q6.5 -6.5 15.5 -6.5 l460 0 q9 0 15.5 6.5 q6.5 6.5 6.5 15.5 ZM669 435 l0 154 q0 9 -6.5 15.5 q-6.5 6.5 -15.5 6.5 l-460 0 q-9 0 -15.5 -6.5 q-6.5 -6.5 -6.5 -15.5 l0 -154 q0 -9 6.5 -15.5 q6.5 -6.5 15.5 -6.5 l460 0 q9 0 15.5 6.5 q6.5 6.5 6.5 15.5 Z" /><glyph glyph-name="nine" unicode="9" d="M301 296 l-120 0 q-54 0 -92 38 q-38 38 -38 92 l0 164 q0 54 38 92 q38 38 92 38 l460 0 q54 0 92 -38 q38 -38 38 -92 l0 -460 q0 -54 -38 -92 q-38 -38 -92 -38 l-460 0 q-48 0 -84 31 q-36 31 -44 77 l588 0 q9 0 15.5 6.5 q6.5 6.5 6.5 15.5 l0 144 q0 9 -6.5 15.5 q-6.5 6.5 -15.5 6.5 l-340 0 ZM159 590 l0 -164 q0 -9 6.5 -15.5 q6.5 -6.5 15.5 -6.5 l482 0 l0 186 q0 9 -6.5 15.5 q-6.5 6.5 -15.5 6.5 l-460 0 q-9 0 -15.5 -6.5 q-6.5 -6.5 -6.5 -15.5 Z" /><glyph glyph-name="colon" unicode=":" d="M54 108 l108 0 l0 -108 l-108 0 l0 108 ZM162 588 l0 -108 l-108 0 l0 108 l108 0 Z" /><glyph glyph-name="semicolon" unicode=";" d="M159 588 l0 -108 l-108 0 l0 108 l108 0 ZM51 108 l108 0 l0 -108 q0 -48 -31 -84 q-31 -36 -77 -44 l0 236 Z" /><glyph glyph-name="less" unicode="&lt;" d="M127 296 l289 -167 l0 -125 l-411 238 l0 108 l411 237 l0 -125 l-289 -166 Z" /><glyph glyph-name="equal" unicode="=" d="M579 251 l0 -108 l-520 0 l0 108 l520 0 ZM579 441 l0 -108 l-520 0 l0 108 l520 0 Z" /><glyph glyph-name="greater" unicode="&gt;" d="M59 2 l0 125 l289 167 l-289 166 l0 125 l411 -237 l0 -108 l-411 -238 Z" /><glyph glyph-name="question" unicode="?" d="M31 720 l497 0 q54 0 92 -38 q38 -38 38 -92 l0 -184 q0 -54 -38 -92 q-38 -38 -92 -38 l-259 0 q-9 0 -15.5 -6.5 q-6.5 -6.5 -6.5 -15.5 l0 -55 l-108 0 l0 55 q0 54 38 92 q38 38 92 38 l259 0 q9 0 15.5 6.5 q6.5 6.5 6.5 15.5 l0 184 q0 9 -6.5 15.5 q-6.5 6.5 -15.5 6.5 l-497 0 l0 108 ZM247 0 l-108 0 l0 108 l108 0 l0 -108 Z" /><glyph glyph-name="at" unicode="@" d="M372 530 l90 0 q54 0 92 -38 q38 -38 38 -92 l0 -122 l77 0 l0 312 q0 9 -6.5 15.5 q-6.5 6.5 -15.5 6.5 l-460 0 q-9 0 -15.5 -6.5 q-6.5 -6.5 -6.5 -15.5 l0 -460 q0 -9 6.5 -15.5 q6.5 -6.5 15.5 -6.5 l590 0 l0 -108 l-590 0 q-54 0 -92 38 q-38 38 -38 92 l0 460 q0 54 38 92 q38 38 92 38 l460 0 q54 0 92 -38 q38 -38 38 -92 l0 -400 l-405 0 q-54 0 -92 38 q-38 38 -38 92 l0 80 q0 54 38 92 q38 38 92 38 ZM352 278 l152 0 l0 142 q0 9 -6.5 15.5 q-6.5 6.5 -15.5 6.5 l-130 0 q-9 0 -15.5 -6.5 q-6.5 -6.5 -6.5 -15.5 l0 -120 q0 -9 6.5 -15.5 q6.5 -6.5 15.5 -6.5 Z" /><glyph glyph-name="A" unicode="a" d="M188 720 l460 0 q54 0 92 -38 q38 -38 38 -92 l0 -590 l-108 0 l0 252 l-504 0 l0 -252 l-108 0 l0 590 q0 54 38 92 q38 38 92 38 ZM166 360 l504 0 l0 230 q0 9 -6.5 15.5 q-6.5 6.5 -15.5 6.5 l-460 0 q-9 0 -15.5 -6.5 q-6.5 -6.5 -6.5 -15.5 l0 -230 Z" /><glyph glyph-name="B" unicode="b" d="M736 387 q43 -38 43 -96 l0 -161 q0 -54 -38 -92 q-38 -38 -92 -38 l-590 0 l0 720 l560 0 q54 0 92 -38 q38 -38 38 -92 l0 -147 q0 -28 -13 -56 ZM619 612 l-430 0 q-9 0 -15.5 -6.5 q-6.5 -6.5 -6.5 -15.5 l0 -147 q0 -9 6.5 -15.5 q6.5 -6.5 15.5 -6.5 l430 0 q9 0 15.5 6.5 q6.5 6.5 6.5 15.5 l0 147 q0 9 -6.5 15.5 q-6.5 6.5 -15.5 6.5 ZM671 130 l0 161 q0 9 -6.5 15.5 q-6.5 6.5 -15.5 6.5 l-460 0 q-9 0 -15.5 -6.5 q-6.5 -6.5 -6.5 -15.5 l0 -161 q0 -9 6.5 -15.5 q6.5 -6.5 15.5 -6.5 l460 0 q9 0 15.5 6.5 q6.5 6.5 6.5 15.5 Z" /><glyph glyph-name="C" unicode="c" d="M774 612 l-588 0 q-9 0 -15.5 -6.5 q-6.5 -6.5 -6.5 -15.5 l0 -460 q0 -9 6.5 -15.5 q6.5 -6.5 15.5 -6.5 l588 0 l0 -108 l-588 0 q-54 0 -92 38 q-38 38 -38 92 l0 460 q0 54 38 92 q38 38 92 38 l588 0 l0 -108 Z" /><glyph glyph-name="D" unicode="d" d="M58 720 l590 0 q54 0 92 -38 q38 -38 38 -92 l0 -460 q0 -54 -38 -92 q-38 -38 -92 -38 l-590 0 l0 720 ZM670 130 l0 460 q0 9 -6.5 15.5 q-6.5 6.5 -15.5 6.5 l-460 0 q-9 0 -15.5 -6.5 q-6.5 -6.5 -6.5 -15.5 l0 -460 q0 -9 6.5 -15.5 q6.5 -6.5 15.5 -6.5 l460 0 q9 0 15.5 6.5 q6.5 6.5 6.5 15.5 Z" /><glyph glyph-name="E" unicode="e" d="M718 720 l0 -108 l-552 0 l0 -198 l444 0 l0 -108 l-444 0 l0 -198 l552 0 l0 -108 l-660 0 l0 720 l660 0 Z" /><glyph glyph-name="F" unicode="f" d="M58 720 l660 0 l0 -108 l-552 0 l0 -198 l444 0 l0 -108 l-444 0 l0 -306 l-108 0 l0 720 Z" /><glyph glyph-name="G" unicode="g" d="M776 590 l0 -43 l-108 0 l0 43 q0 9 -6.5 15.5 q-6.5 6.5 -15.5 6.5 l-460 0 q-9 0 -15.5 -6.5 q-6.5 -6.5 -6.5 -15.5 l0 -460 q0 -9 6.5 -15.5 q6.5 -6.5 15.5 -6.5 l460 0 q9 0 15.5 6.5 q6.5 6.5 6.5 15.5 l0 156 l-170 0 l0 108 l278 0 l0 -264 q0 -54 -38 -92 q-38 -38 -92 -38 l-460 0 q-54 0 -92 38 q-38 38 -38 92 l0 460 q0 54 38 92 q38 38 92 38 l460 0 q54 0 92 -38 q38 -38 38 -92 Z" /><glyph glyph-name="H" unicode="h" d="M686 720 l108 0 l0 -720 l-108 0 l0 306 l-521 0 l0 -306 l-108 0 l0 720 l108 0 l0 -306 l521 0 l0 306 Z" /><glyph glyph-name="I" unicode="i" d="M57 0 l0 720 l108 0 l0 -720 l-108 0 Z" /><glyph glyph-name="J" unicode="j" d="M616 130 l0 590 l108 0 l0 -590 q0 -54 -38 -92 q-38 -38 -92 -38 l-460 0 q-54 0 -92 38 q-38 38 -38 92 l0 70 l108 0 l0 -70 q0 -9 6.5 -15.5 q6.5 -6.5 15.5 -6.5 l460 0 q9 0 15.5 6.5 q6.5 6.5 6.5 15.5 Z" /><glyph glyph-name="K" unicode="k" d="M622 720 l128 0 l0 -15 l-289 -345 l289 -345 l0 -15 l-128 0 l-257 306 l-200 0 l0 -306 l-108 0 l0 720 l108 0 l0 -306 l200 0 l257 306 Z" /><glyph glyph-name="L" unicode="l" d="M57 0 l0 721 l108 0 l0 -613 l612 0 l0 -108 l-720 0 Z" /><glyph glyph-name="M" unicode="m" d="M464 387 l279 333 l129 0 l0 -720 l-108 0 l0 576 l-300 -357 l-300 357 l0 -576 l-108 0 l0 720 l128 0 l280 -333 Z" /><glyph glyph-name="N" unicode="n" d="M668 144 l0 576 l108 0 l0 -720 l-128 0 l-484 576 l0 -576 l-108 0 l0 720 l128 0 l484 -576 Z" /><glyph glyph-name="O" unicode="o" d="M184 720 l460 0 q54 0 92 -38 q38 -38 38 -92 l0 -460 q0 -54 -38 -92 q-38 -38 -92 -38 l-460 0 q-54 0 -92 38 q-38 38 -38 92 l0 460 q0 54 38 92 q38 38 92 38 ZM184 108 l460 0 q9 0 15.5 6.5 q6.5 6.5 6.5 15.5 l0 460 q0 9 -6.5 15.5 q-6.5 6.5 -15.5 6.5 l-460 0 q-9 0 -15.5 -6.5 q-6.5 -6.5 -6.5 -15.5 l0 -460 q0 -9 6.5 -15.5 q6.5 -6.5 15.5 -6.5 Z" /><glyph glyph-name="P" unicode="p" d="M56 719 l590 0 q54 0 92 -38.5 q38 -38.5 38 -91.5 l0 -202 q0 -53 -38 -91.5 q-38 -38.5 -92 -38.5 l-460 0 q-8 0 -22 2 l0 -259 l-108 0 l0 719 ZM668 387 l0 202 q0 9 -6.5 15.5 q-6.5 6.5 -15.5 6.5 l-460 0 q-9 0 -15.5 -6.5 q-6.5 -6.5 -6.5 -15.5 l0 -202 q0 -9 6.5 -15.5 q6.5 -6.5 15.5 -6.5 l460 0 q9 0 15.5 6.5 q6.5 6.5 6.5 15.5 Z" /><glyph glyph-name="Q" unicode="q" d="M772 108 l92 0 l0 -108 l-680 0 q-54 0 -92 38 q-38 38 -38 92 l0 460 q0 54 38 92 q38 38 92 38 l460 0 q54 0 92 -38 q38 -38 38 -92 l0 -460 q0 -8 -2 -22 ZM184 108 l460 0 q9 0 15.5 6.5 q6.5 6.5 6.5 15.5 l0 460 q0 9 -6.5 15.5 q-6.5 6.5 -15.5 6.5 l-460 0 q-9 0 -15.5 -6.5 q-6.5 -6.5 -6.5 -15.5 l0 -460 q0 -9 6.5 -15.5 q6.5 -6.5 15.5 -6.5 Z" /><glyph glyph-name="R" unicode="r" d="M775 589 l0 -202 q0 -53 -38 -91.5 q-38 -38.5 -92 -38.5 l-73 0 l203 -242 l0 -15 l-128 0 l-216 257 l-246 0 q-8 0 -22 2 l0 -259 l-108 0 l0 719 l590 0 q54 0 92 -38.5 q38 -38.5 38 -91.5 ZM185 365 l460 0 q9 0 15.5 6.5 q6.5 6.5 6.5 15.5 l0 202 q0 9 -6.5 15.5 q-6.5 6.5 -15.5 6.5 l-460 0 q-9 0 -15.5 -6.5 q-6.5 -6.5 -6.5 -15.5 l0 -202 q0 -9 6.5 -15.5 q6.5 -6.5 15.5 -6.5 Z" /><glyph glyph-name="S" unicode="s" d="M771 590 l0 -42 l-108 0 l0 42 q0 9 -6.5 15.5 q-6.5 6.5 -15.5 6.5 l-460 0 q-9 0 -15.5 -6.5 q-6.5 -6.5 -6.5 -15.5 l0 -154 q0 -9 6.5 -15.5 q6.5 -6.5 15.5 -6.5 l460 0 q54 0 92 -38 q38 -38 38 -92 l0 -154 q0 -54 -38 -92 q-38 -38 -92 -38 l-460 0 q-54 0 -92 38 q-38 38 -38 92 l0 42 l108 0 l0 -42 q0 -9 6.5 -15.5 q6.5 -6.5 15.5 -6.5 l460 0 q9 0 15.5 6.5 q6.5 6.5 6.5 15.5 l0 154 q0 9 -6.5 15.5 q-6.5 6.5 -15.5 6.5 l-460 0 q-54 0 -92 38 q-38 38 -38 92 l0 154 q0 54 38 92 q38 38 92 38 l460 0 q54 0 92 -38 q38 -38 38 -92 Z" /><glyph glyph-name="T" unicode="t" d="M20 720 l720 0 l0 -108 l-306 0 l0 -612 l-108 0 l0 612 l-306 0 l0 108 Z" /><glyph glyph-name="U" unicode="u" d="M666 130 l0 590 l108 0 l0 -590 q0 -54 -38 -92 q-38 -38 -92 -38 l-460 0 q-54 0 -92 38 q-38 38 -38 92 l0 590 l108 0 l0 -590 q0 -9 6.5 -15.5 q6.5 -6.5 15.5 -6.5 l460 0 q9 0 15.5 6.5 q6.5 6.5 6.5 15.5 Z" /><glyph glyph-name="V" unicode="v" d="M505 122 l345 598 l124 0 l-415 -720 l-108 0 l-416 720 l125 0 l345 -598 Z" /><glyph glyph-name="W" unicode="w" d="M1029 720 l115 0 l-262 -720 l-88 0 l-205 561 l-204 -561 l-2 1 l1 -1 l-87 0 l-262 720 l115 0 l191 -525 l191 525 l115 0 l191 -525 l191 525 Z" /><glyph glyph-name="X" unicode="x" d="M638 720 l128 0 l0 -15 l-290 -345 l290 -345 l0 -15 l-128 0 l-232 276 l-232 -276 l-128 0 l0 15 l289 345 l-289 345 l0 15 l128 0 l232 -276 l232 276 Z" /><glyph glyph-name="Y" unicode="y" d="M661 720 l128 0 l-332 -450 l0 -270 l-108 0 l0 270 l-332 450 l127 0 l259 -328 l258 328 Z" /><glyph glyph-name="Z" unicode="z" d="M51 612 l0 108 l720 0 l0 -128 l-576 -484 l576 0 l0 -108 l-720 0 l0 128 l576 484 l-576 0 Z" /><glyph glyph-name="bracketleft" unicode="[" d="M54 0 l0 720 l172 0 l0 -108 l-64 0 l0 -504 l64 0 l0 -108 l-172 0 Z" /><glyph glyph-name="backslash" unicode="\" d="M5 720 l15 0 l495 -592 l0 -128 l-15 0 l-495 592 l0 128 Z" /><glyph glyph-name="bracketright" unicode="]" d="M51 612 l0 108 l172 0 l0 -720 l-172 0 l0 108 l64 0 l0 504 l-64 0 Z" /><glyph glyph-name="underscore" unicode="_" d="M774 0 l0 -108 l-720 0 l0 108 l720 0 Z" /><glyph glyph-name="grave" unicode="`" d="M140 989 l40 -162 l-108 0 l-40 162 l108 0 Z" /><glyph glyph-name="a" unicode="a" d="M512 580 q54 0 92 -38 q38 -38 38 -92 l0 -450 l-460 0 q-54 0 -92 38 q-38 38 -38 92 l0 214 l482 0 l0 106 q0 9 -6.5 15.5 q-6.5 6.5 -15.5 6.5 l-460 0 l0 108 l460 0 ZM534 108 l0 128 l-374 0 l0 -106 q0 -9 6.5 -15.5 q6.5 -6.5 15.5 -6.5 l352 0 Z" /><glyph glyph-name="b" unicode="b" d="M514 580 q54 0 92 -38 q38 -38 38 -92 l0 -320 q0 -54 -38 -92 q-38 -38 -92 -38 l-460 0 l0 770 l108 0 l0 -190 l352 0 ZM536 130 l0 320 q0 9 -6.5 15.5 q-6.5 6.5 -15.5 6.5 l-330 0 q-9 0 -15.5 -6.5 q-6.5 -6.5 -6.5 -15.5 l0 -320 q0 -9 6.5 -15.5 q6.5 -6.5 15.5 -6.5 l330 0 q9 0 15.5 6.5 q6.5 6.5 6.5 15.5 Z" /><glyph glyph-name="c" unicode="c" d="M181 108 l460 0 l0 -108 l-460 0 q-54 0 -92 38 q-38 38 -38 92 l0 320 q0 54 38 92 q38 38 92 38 l458 0 l0 -108 l-458 0 q-9 0 -15.5 -6.5 q-6.5 -6.5 -6.5 -15.5 l0 -320 q0 -9 6.5 -15.5 q6.5 -6.5 15.5 -6.5 Z" /><glyph glyph-name="d" unicode="d" d="M505 770 l108 0 l0 -770 l-460 0 q-54 0 -92 38 q-38 38 -38 92 l0 320 q0 54 38 92 q38 38 92 38 l352 0 l0 190 ZM153 108 l330 0 q9 0 15.5 6.5 q6.5 6.5 6.5 15.5 l0 320 q0 9 -6.5 15.5 q-6.5 6.5 -15.5 6.5 l-330 0 q-9 0 -15.5 -6.5 q-6.5 -6.5 -6.5 -15.5 l0 -320 q0 -9 6.5 -15.5 q6.5 -6.5 15.5 -6.5 Z" /><glyph glyph-name="e" unicode="e" d="M511 580 q54 0 92 -38 q38 -38 38 -92 l0 -214 l-482 0 l0 -106 q0 -9 6.5 -15.5 q6.5 -6.5 15.5 -6.5 l460 0 l0 -108 l-460 0 q-54 0 -92 38 q-38 38 -38 92 l0 320 q0 54 38 92 q38 38 92 38 l330 0 ZM159 344 l374 0 l0 106 q0 9 -6.5 15.5 q-6.5 6.5 -15.5 6.5 l-330 0 q-9 0 -15.5 -6.5 q-6.5 -6.5 -6.5 -15.5 l0 -106 Z" /><glyph glyph-name="f" unicode="f" d="M183 662 q-9 0 -15.5 -6.5 q-6.5 -6.5 -6.5 -15.5 l0 -60 l238 0 l0 -108 l-238 0 l0 -472 l-108 0 l0 320 l0 320 q0 54 38 92 q38 38 92 38 l216 0 l0 -108 l-216 0 Z" /><glyph glyph-name="g" unicode="g" d="M631 221 l0 -1 l0 -320 q0 -54 -38 -92 q-38 -38 -92 -38 l-358 0 l0 108 l358 0 q9 0 15.5 6.5 q6.5 6.5 6.5 15.5 l0 100 l-352 0 q-54 0 -92 38 q-38 38 -38 92 l0 320 q0 54 38 92 q38 38 92 38 l330 0 q54 0 92 -38 q38 -38 38 -92 l0 -229 ZM171 108 l330 0 q9 0 15.5 6.5 q6.5 6.5 6.5 15.5 l0 320 q0 9 -6.5 15.5 q-6.5 6.5 -15.5 6.5 l-330 0 q-9 0 -15.5 -6.5 q-6.5 -6.5 -6.5 -15.5 l0 -320 q0 -9 6.5 -15.5 q6.5 -6.5 15.5 -6.5 Z" /><glyph glyph-name="h" unicode="h" d="M514 580 q53 0 91.5 -38 q38.5 -38 38.5 -92 l0 -450 l-108 0 l0 450 q0 9 -6.5 15.5 q-6.5 6.5 -15.5 6.5 l-330 0 q-9 0 -15.5 -6.5 q-6.5 -6.5 -6.5 -15.5 l0 -450 l-108 0 l0 770 l108 0 l0 -190 l352 0 Z" /><glyph glyph-name="i" unicode="i" d="M52 0 l0 580 l108 0 l0 -580 l-108 0 ZM52 770 l108 0 l0 -108 l-108 0 l0 108 Z" /><glyph glyph-name="j" unicode="j" d="M83 770 l108 0 l0 -108 l-108 0 l0 108 ZM191 578 l0 -358 l0 -320 q0 -54 -38 -92 q-38 -38 -92 -38 l-248 0 l0 108 l248 0 q9 0 15.5 6.5 q6.5 6.5 6.5 15.5 l0 678 l108 0 Z" /><glyph glyph-name="k" unicode="k" d="M509 580 l128 0 l0 -15 l-249 -275 l249 -275 l0 -15 l-128 0 l-217 236 l-130 0 l0 -236 l-108 0 l0 770 l108 0 l0 -426 l130 0 l217 236 Z" /><glyph glyph-name="l" unicode="l" d="M52 450 l0 320 l108 0 l0 -640 q0 -9 6.5 -15.5 q6.5 -6.5 15.5 -6.5 l108 0 l0 -108 l-108 0 q-54 0 -92 38 q-38 38 -38 92 l0 320 Z" /><glyph glyph-name="m" unicode="m" d="M795 580 q54 0 92 -38 q38 -38 38 -92 l0 -450 l-107 0 l0 450 q0 9 -6.5 15.5 q-6.5 6.5 -16.5 6.5 l-229 0 q-9 0 -15.5 -6.5 q-6.5 -6.5 -6.5 -15.5 l0 -450 l-108 0 l0 450 q0 9 -6.5 15.5 q-6.5 6.5 -15.5 6.5 l-230 0 q-9 0 -15.5 -6.5 q-6.5 -6.5 -6.5 -15.5 l0 -450 l-108 0 l0 580 l741 0 Z" /><glyph glyph-name="n" unicode="n" d="M514 580 q54 0 92 -38 q38 -38 38 -92 l0 -450 l-108 0 l0 450 q0 9 -6.5 15.5 q-6.5 6.5 -15.5 6.5 l-330 0 q-9 0 -15.5 -6.5 q-6.5 -6.5 -6.5 -15.5 l0 -450 l-108 0 l0 580 l460 0 Z" /><glyph glyph-name="o" unicode="o" d="M181 580 l330 0 q54 0 92 -38 q38 -38 38 -92 l0 -320 q0 -54 -38 -92 q-38 -38 -92 -38 l-330 0 q-54 0 -92 38 q-38 38 -38 92 l0 320 q0 54 38 92 q38 38 92 38 ZM511 472 l-330 0 q-9 0 -15.5 -6.5 q-6.5 -6.5 -6.5 -15.5 l0 -320 q0 -9 6.5 -15.5 q6.5 -6.5 15.5 -6.5 l330 0 q9 0 15.5 6.5 q6.5 6.5 6.5 15.5 l0 320 q0 9 -6.5 15.5 q-6.5 6.5 -15.5 6.5 Z" /><glyph glyph-name="p" unicode="p" d="M514 580 q54 0 92 -38 q38 -38 38 -92 l0 -320 q0 -54 -38 -92 q-38 -38 -92 -38 l-352 0 l0 -230 l-108 0 l0 810 l460 0 ZM536 130 l0 320 q0 9 -6.5 15.5 q-6.5 6.5 -15.5 6.5 l-330 0 q-9 0 -15.5 -6.5 q-6.5 -6.5 -6.5 -15.5 l0 -320 q0 -9 6.5 -15.5 q6.5 -6.5 15.5 -6.5 l330 0 q9 0 15.5 6.5 q6.5 6.5 6.5 15.5 Z" /><glyph glyph-name="q" unicode="q" d="M20 450 q0 54 38 92 q38 38 92 38 l460 0 l0 -810 l-108 0 l0 230 l-352 0 q-54 0 -92 38 q-38 38 -38 92 l0 320 ZM128 450 l0 -320 q0 -9 6.5 -15.5 q6.5 -6.5 15.5 -6.5 l330 0 q9 0 15.5 6.5 q6.5 6.5 6.5 15.5 l0 320 q0 9 -6.5 15.5 q-6.5 6.5 -15.5 6.5 l-330 0 q-9 0 -15.5 -6.5 q-6.5 -6.5 -6.5 -15.5 Z" /><glyph glyph-name="r" unicode="r" d="M182 580 l324 0 l0 -108 l-324 0 q-9 0 -15.5 -6.5 q-6.5 -6.5 -6.5 -15.5 l0 -450 l-108 0 l0 130 l0 320 q0 54 38 92 q38 38 92 38 Z" /><glyph glyph-name="s" unicode="s" d="M638 450 l0 -22 l-108 0 l0 22 q0 9 -6.5 15.5 q-6.5 6.5 -15.5 6.5 l-330 0 q-9 0 -15.5 -6.5 q-6.5 -6.5 -6.5 -15.5 l0 -84 q0 -9 6.5 -15.5 q6.5 -6.5 15.5 -6.5 l330 0 q54 0 92 -38 q38 -38 38 -92 l0 -84 q0 -54 -38 -92 q-38 -38 -92 -38 l-330 0 q-54 0 -92 38 q-38 38 -38 92 l0 22 l108 0 l0 -22 q0 -9 6.5 -15.5 q6.5 -6.5 15.5 -6.5 l330 0 q9 0 15.5 6.5 q6.5 6.5 6.5 15.5 l0 84 q0 9 -6.5 15.5 q-6.5 6.5 -15.5 6.5 l-330 0 q-54 0 -92 38 q-38 38 -38 92 l0 84 q0 54 38 92 q38 38 92 38 l330 0 q54 0 92 -38 q38 -38 38 -92 Z" /><glyph glyph-name="t" unicode="t" d="M399 472 l-238 0 l0 -342 q0 -9 6.5 -15.5 q6.5 -6.5 15.5 -6.5 l216 0 l0 -108 l-216 0 q-54 0 -92 38 q-38 38 -38 92 l0 320 l0 320 l108 0 l0 -190 l238 0 l0 -108 Z" /><glyph glyph-name="u" unicode="u" d="M535 580 l108 0 l0 -450 q0 -54 -38 -92 q-38 -38 -92 -38 l-330 0 q-54 0 -92 38 q-38 38 -38 92 l0 450 l108 0 l0 -450 q0 -9 6.5 -15.5 q6.5 -6.5 15.5 -6.5 l330 0 q9 0 15.5 6.5 q6.5 6.5 6.5 15.5 l0 450 Z" /><glyph glyph-name="v" unicode="v" d="M645 580 l124 0 l-320 -580 l-108 0 l-320 580 l125 0 l249 -458 l250 458 Z" /><glyph glyph-name="w" unicode="w" d="M921 580 l115 0 l-218 -580 l-88 0 l-195 431 l-184 -431 l-2 1 l1 -1 l-87 0 l-228 580 l115 0 l157 -385 l167 385 l123 0 l177 -385 l147 385 Z" /><glyph glyph-name="x" unicode="x" d="M518 580 l128 0 l0 -15 l-230 -270 l230 -280 l0 -15 l-128 0 l-172 211 l-172 -211 l-128 0 l0 15 l229 280 l-229 270 l0 15 l128 0 l172 -201 l172 201 Z" /><glyph glyph-name="y" unicode="y" d="M632 222 l0 -2 l0 -320 q0 -54 -38 -92 q-38 -38 -92 -38 l-358 0 l0 108 l358 0 q9 0 15.5 6.5 q6.5 6.5 6.5 15.5 l0 100 l-352 0 q-54 0 -92 38 q-38 38 -38 92 l0 448 l108 0 l0 -448 q0 -9 6.5 -15.5 q6.5 -6.5 15.5 -6.5 l330 0 q9 0 15.5 6.5 q6.5 6.5 6.5 15.5 l0 448 l108 0 l0 -356 Z" /><glyph glyph-name="z" unicode="z" d="M54 472 l0 108 l590 0 l0 -128 l-446 -344 l446 0 l0 -108 l-590 0 l0 128 l446 344 l-446 0 Z" /><glyph glyph-name="braceleft" unicode="{" d="M175 308 l0 -178 q0 -9 6.5 -15.5 q6.5 -6.5 15.5 -6.5 l42 0 l0 -108 l-42 0 q-54 0 -92 38 q-38 38 -38 92 l0 156 l-44 26 l0 108 l44 25 l0 145 q0 54 38 92 q38 38 92 38 l42 0 l0 -108 l-42 0 q-9 0 -15.5 -6.5 q-6.5 -6.5 -6.5 -15.5 l0 -169 l-70 -55 l70 -58 Z" /><glyph glyph-name="bar" unicode="|" d="M54 -109 l0 937 l108 0 l0 -937 l-108 0 Z" /><glyph glyph-name="braceright" unicode="}" d="M115 130 l0 178 l70 58 l-70 55 l0 169 q0 9 -6.5 15.5 q-6.5 6.5 -15.5 6.5 l-42 0 l0 108 l42 0 q54 0 92 -38 q38 -38 38 -92 l0 -145 l44 -25 l0 -108 l-44 -26 l0 -156 q0 -54 -38 -92 q-38 -38 -92 -38 l-42 0 l0 108 l42 0 q9 0 15.5 6.5 q6.5 6.5 6.5 15.5 Z" /><glyph glyph-name="asciitilde" unicode="~" d="M298 298 q39 0 78 26 l0 -74 q-42 -18 -78 -18 q-35 0 -98 34 q-63 34 -102 34 q-60 0 -74 -23 l0 75 q33 14 74 14 q39 0 102.5 -32 q63.5 -32 97.5 -36 Z" /><glyph glyph-name="exclamdown" unicode="¡" d="M161 720 l0 -108 l-108 0 l0 108 l108 0 ZM161 0 l-108 0 l0 520 l108 0 l0 -520 Z" /><glyph glyph-name="cent" unicode="¢" d="M621 482 l-239 0 l0 -374 l239 0 l0 -108 l-239 0 l0 -109 l-108 0 l0 109 l-111 0 q-54 0 -92 38 q-38 38 -38 92 l0 330 q0 54 38 92 q38 38 92 38 l111 0 l0 128 l108 0 l0 -128 l239 0 l0 -108 ZM274 108 l0 374 l-111 0 q-9 0 -15.5 -6.5 q-6.5 -6.5 -6.5 -15.5 l0 -330 q0 -9 6.5 -15.5 q6.5 -6.5 15.5 -6.5 l111 0 Z" /><glyph glyph-name="sterling" unicode="£" d="M687 560 l-108 0 l0 30 q0 9 -6.5 15.5 q-6.5 6.5 -15.5 6.5 l-288 0 q-9 0 -15.5 -6.5 q-6.5 -6.5 -6.5 -15.5 l0 -176 l334 0 l0 -108 l-334 0 l0 -198 l440 0 l0 -108 l-648 0 l0 108 l100 0 l0 198 l-100 0 l0 108 l100 0 l0 176 q0 54 38 92 q38 38 92 38 l288 0 q54 0 92 -38 q38 -38 38 -92 l0 -30 Z" /><glyph glyph-name="dieresis" unicode="¨¬" d="M332 935 l0 -108 l-108 0 l0 108 l108 0 ZM162 935 l0 -108 l-108 0 l0 108 l108 0 Z" /><glyph glyph-name="degree" unicode="°" d="M175 720 l90 0 q54 0 92 -38 q38 -38 38 -92 l0 -80 q0 -54 -38 -92 q-38 -38 -92 -38 l-90 0 q-54 0 -92 38 q-38 38 -38 92 l0 80 q0 54 38 92 q38 38 92 38 ZM155 468 l130 0 q9 0 15.5 6.5 q6.5 6.5 6.5 15.5 l0 120 q0 9 -6.5 15.5 q-6.5 6.5 -15.5 6.5 l-130 0 q-9 0 -15.5 -6.5 q-6.5 -6.5 -6.5 -15.5 l0 -120 q0 -9 6.5 -15.5 q6.5 -6.5 15.5 -6.5 Z" /><glyph glyph-name="acute" unicode="«´" d="M33 827 l40 162 l108 0 l-40 -162 l-108 0 Z" /><glyph glyph-name="paragraph" unicode="¦¶" d="M56 589 q0 53 38 91.5 q38 38.5 92 38.5 l590 0 l0 -719 l-108 0 l0 257 l-101 0 l0 -257 l-108 0 l0 257 l-273 0 q-54 0 -92 38.5 q-38 38.5 -38 91.5 l0 202 ZM567 611 l0 -246 l101 0 l0 246 l-101 0 ZM164 589 l0 -202 q0 -9 6.5 -15.5 q6.5 -6.5 15.5 -6.5 l273 0 l0 246 l-273 0 q-9 0 -15.5 -6.5 q-6.5 -6.5 -6.5 -15.5 Z" /><glyph glyph-name="cedilla" unicode="¸" d="M33 -162 l40 162 l108 0 l-40 -162 l-108 0 Z" /><glyph glyph-name="questiondown" unicode="¿" d="M646 0 l-497 0 q-54 0 -92 38 q-38 38 -38 92 l0 184 q0 54 38 92 q38 38 92 38 l259 0 q9 0 15.5 6.5 q6.5 6.5 6.5 15.5 l0 61 l108 0 l0 -61 q0 -54 -38 -92 q-38 -38 -92 -38 l-259 0 q-9 0 -15.5 -6.5 q-6.5 -6.5 -6.5 -15.5 l0 -184 q0 -9 6.5 -15.5 q6.5 -6.5 15.5 -6.5 l497 0 l0 -108 ZM538 720 l0 -108 l-108 0 l0 108 l108 0 Z" /><glyph glyph-name="Agrave" unicode="à" d="M188 720 l460 0 q54 0 92 -38 q38 -38 38 -92 l0 -590 l-108 0 l0 252 l-504 0 l0 -252 l-108 0 l0 590 q0 54 38 92 q38 38 92 38 ZM166 360 l504 0 l0 230 q0 9 -6.5 15.5 q-6.5 6.5 -15.5 6.5 l-460 0 q-9 0 -15.5 -6.5 q-6.5 -6.5 -6.5 -15.5 l0 -230 ZM452 982 l40 -162 l-108 0 l-40 162 l108 0 Z" /><glyph glyph-name="Aacute" unicode="á" d="M188 720 l460 0 q54 0 92 -38 q38 -38 38 -92 l0 -590 l-108 0 l0 252 l-504 0 l0 -252 l-108 0 l0 590 q0 54 38 92 q38 38 92 38 ZM166 360 l504 0 l0 230 q0 9 -6.5 15.5 q-6.5 6.5 -15.5 6.5 l-460 0 q-9 0 -15.5 -6.5 q-6.5 -6.5 -6.5 -15.5 l0 -230 ZM344 819 l40 162 l108 0 l-40 -162 l-108 0 Z" /><glyph glyph-name="Acircumflex" unicode="â" d="M188 720 l460 0 q54 0 92 -38 q38 -38 38 -92 l0 -590 l-108 0 l0 252 l-504 0 l0 -252 l-108 0 l0 590 q0 54 38 92 q38 38 92 38 ZM166 360 l504 0 l0 230 q0 9 -6.5 15.5 q-6.5 6.5 -15.5 6.5 l-460 0 q-9 0 -15.5 -6.5 q-6.5 -6.5 -6.5 -15.5 l0 -230 ZM370 819 l-74 0 l85 141 l74 0 l85 -141 l-75 0 l-47 76 l-48 -76 Z" /><glyph glyph-name="Atilde" unicode="ã" d="M188 720 l460 0 q54 0 92 -38 q38 -38 38 -92 l0 -590 l-108 0 l0 252 l-504 0 l0 -252 l-108 0 l0 590 q0 54 38 92 q38 38 92 38 ZM166 360 l504 0 l0 230 q0 9 -6.5 15.5 q-6.5 6.5 -15.5 6.5 l-460 0 q-9 0 -15.5 -6.5 q-6.5 -6.5 -6.5 -15.5 l0 -230 ZM516 890 q39 0 78 26 l0 -74 q-42 -18 -78 -18 q-35 0 -98 34 q-63 34 -102 34 q-60 0 -74 -23 l0 75 q33 14 74 14 q39 0 102.5 -32 q63.5 -32 97.5 -36 Z" /><glyph glyph-name="Adieresis" unicode="ä" d="M188 720 l460 0 q54 0 92 -38 q38 -38 38 -92 l0 -590 l-108 0 l0 252 l-504 0 l0 -252 l-108 0 l0 590 q0 54 38 92 q38 38 92 38 ZM166 360 l504 0 l0 230 q0 9 -6.5 15.5 q-6.5 6.5 -15.5 6.5 l-460 0 q-9 0 -15.5 -6.5 q-6.5 -6.5 -6.5 -15.5 l0 -230 ZM557 918 l0 -108 l-108 0 l0 108 l108 0 ZM387 918 l0 -108 l-108 0 l0 108 l108 0 Z" /><glyph glyph-name="Aring" unicode="å" d="M188 720 l460 0 q54 0 92 -38 q38 -38 38 -92 l0 -590 l-108 0 l0 252 l-504 0 l0 -252 l-108 0 l0 590 q0 54 38 92 q38 38 92 38 ZM166 360 l504 0 l0 230 q0 9 -6.5 15.5 q-6.5 6.5 -15.5 6.5 l-460 0 q-9 0 -15.5 -6.5 q-6.5 -6.5 -6.5 -15.5 l0 -230 ZM390 981 l56 0 q22 0 38 -15.5 q16 -15.5 16 -37.5 l0 -54 q0 -22 -16 -37.5 q-16 -15.5 -38 -15.5 l-56 0 q-22 0 -38 15.5 q-16 15.5 -16 37.5 l0 54 q0 22 16 37.5 q16 15.5 38 15.5 ZM385 861 l66 0 q9 0 9 10 l0 60 q0 10 -9 10 l-66 0 q-9 0 -9 -10 l0 -60 q0 -10 9 -10 Z" /><glyph glyph-name="AE" unicode="®æ" d="M774 612 l0 -198 l444 0 l0 -108 l-444 0 l0 -198 l552 0 l0 -108 l-660 0 l0 252 l-504 0 l0 -252 l-108 0 l0 590 q0 54 38 92 q38 38 92 38 l1142 0 l0 -108 l-552 0 ZM666 360 l0 230 q0 9 -6.5 15.5 q-6.5 6.5 -15.5 6.5 l-460 0 q-9 0 -15.5 -6.5 q-6.5 -6.5 -6.5 -15.5 l0 -230 l504 0 Z" /><glyph glyph-name="Ccedilla" unicode="ç" d="M774 612 l-588 0 q-9 0 -15.5 -6.5 q-6.5 -6.5 -6.5 -15.5 l0 -460 q0 -9 6.5 -15.5 q6.5 -6.5 15.5 -6.5 l588 0 l0 -108 l-289 0 l-40 -162 l-108 0 l40 162 l-191 0 q-54 0 -92 38 q-38 38 -38 92 l0 460 q0 54 38 92 q38 38 92 38 l588 0 l0 -108 Z" /><glyph glyph-name="Egrave" unicode="è" d="M718 720 l0 -108 l-552 0 l0 -198 l444 0 l0 -108 l-444 0 l0 -198 l552 0 l0 -108 l-660 0 l0 720 l660 0 ZM417 982 l40 -162 l-108 0 l-40 162 l108 0 Z" /><glyph glyph-name="Eacute" unicode="é" d="M718 720 l0 -108 l-552 0 l0 -198 l444 0 l0 -108 l-444 0 l0 -198 l552 0 l0 -108 l-660 0 l0 720 l660 0 ZM309 820 l40 162 l108 0 l-40 -162 l-108 0 Z" /><glyph glyph-name="Ecircumflex" unicode="ê" d="M718 720 l0 -108 l-552 0 l0 -198 l444 0 l0 -108 l-444 0 l0 -198 l552 0 l0 -108 l-660 0 l0 720 l660 0 ZM335 819 l-74 0 l85 141 l74 0 l85 -141 l-75 0 l-47 76 l-48 -76 Z" /><glyph glyph-name="Edieresis" unicode="ë" d="M718 720 l0 -108 l-552 0 l0 -198 l444 0 l0 -108 l-444 0 l0 -198 l552 0 l0 -108 l-660 0 l0 720 l660 0 ZM522 928 l0 -108 l-108 0 l0 108 l108 0 ZM352 928 l0 -108 l-108 0 l0 108 l108 0 Z" /><glyph glyph-name="Igrave" unicode="ì" d="M57 0 l0 720 l108 0 l0 -720 l-108 0 ZM144 982 l40 -162 l-108 0 l-40 162 l108 0 Z" /><glyph glyph-name="Iacute" unicode="í" d="M57 0 l0 720 l108 0 l0 -720 l-108 0 ZM36 820 l40 162 l108 0 l-40 -162 l-108 0 Z" /><glyph glyph-name="Icircumflex" unicode="î" d="M57 0 l0 720 l108 0 l0 -720 l-108 0 ZM62 819 l-74 0 l85 141 l74 0 l85 -141 l-75 0 l-47 76 l-48 -76 Z" /><glyph glyph-name="Idieresis" unicode="ï" d="M57 0 l0 720 l108 0 l0 -720 l-108 0 ZM249 928 l0 -108 l-108 0 l0 108 l108 0 ZM79 928 l0 -108 l-108 0 l0 108 l108 0 Z" /><glyph glyph-name="Ntilde" unicode="ñ" d="M668 144 l0 576 l108 0 l0 -720 l-128 0 l-484 576 l0 -576 l-108 0 l0 720 l128 0 l484 -576 ZM514 890 q39 0 78 26 l0 -74 q-42 -18 -78 -18 q-35 0 -98 34 q-63 34 -102 34 q-60 0 -74 -23 l0 75 q33 14 74 14 q39 0 102.5 -32 q63.5 -32 97.5 -36 Z" /><glyph glyph-name="Ograve" unicode="ò" d="M184 720 l460 0 q54 0 92 -38 q38 -38 38 -92 l0 -460 q0 -54 -38 -92 q-38 -38 -92 -38 l-460 0 q-54 0 -92 38 q-38 38 -38 92 l0 460 q0 54 38 92 q38 38 92 38 ZM184 108 l460 0 q9 0 15.5 6.5 q6.5 6.5 6.5 15.5 l0 460 q0 9 -6.5 15.5 q-6.5 6.5 -15.5 6.5 l-460 0 q-9 0 -15.5 -6.5 q-6.5 -6.5 -6.5 -15.5 l0 -460 q0 -9 6.5 -15.5 q6.5 -6.5 15.5 -6.5 ZM448 982 l40 -162 l-108 0 l-40 162 l108 0 Z" /><glyph glyph-name="Oacute" unicode="ó" d="M184 720 l460 0 q54 0 92 -38 q38 -38 38 -92 l0 -460 q0 -54 -38 -92 q-38 -38 -92 -38 l-460 0 q-54 0 -92 38 q-38 38 -38 92 l0 460 q0 54 38 92 q38 38 92 38 ZM184 108 l460 0 q9 0 15.5 6.5 q6.5 6.5 6.5 15.5 l0 460 q0 9 -6.5 15.5 q-6.5 6.5 -15.5 6.5 l-460 0 q-9 0 -15.5 -6.5 q-6.5 -6.5 -6.5 -15.5 l0 -460 q0 -9 6.5 -15.5 q6.5 -6.5 15.5 -6.5 ZM340 820 l40 162 l108 0 l-40 -162 l-108 0 Z" /><glyph glyph-name="Ocircumflex" unicode="ô" d="M184 720 l460 0 q54 0 92 -38 q38 -38 38 -92 l0 -460 q0 -54 -38 -92 q-38 -38 -92 -38 l-460 0 q-54 0 -92 38 q-38 38 -38 92 l0 460 q0 54 38 92 q38 38 92 38 ZM184 108 l460 0 q9 0 15.5 6.5 q6.5 6.5 6.5 15.5 l0 460 q0 9 -6.5 15.5 q-6.5 6.5 -15.5 6.5 l-460 0 q-9 0 -15.5 -6.5 q-6.5 -6.5 -6.5 -15.5 l0 -460 q0 -9 6.5 -15.5 q6.5 -6.5 15.5 -6.5 ZM366 819 l-74 0 l85 141 l74 0 l85 -141 l-75 0 l-47 76 l-48 -76 Z" /><glyph glyph-name="Otilde" unicode="õ" d="M184 720 l460 0 q54 0 92 -38 q38 -38 38 -92 l0 -460 q0 -54 -38 -92 q-38 -38 -92 -38 l-460 0 q-54 0 -92 38 q-38 38 -38 92 l0 460 q0 54 38 92 q38 38 92 38 ZM184 108 l460 0 q9 0 15.5 6.5 q6.5 6.5 6.5 15.5 l0 460 q0 9 -6.5 15.5 q-6.5 6.5 -15.5 6.5 l-460 0 q-9 0 -15.5 -6.5 q-6.5 -6.5 -6.5 -15.5 l0 -460 q0 -9 6.5 -15.5 q6.5 -6.5 15.5 -6.5 ZM512 890 q39 0 78 26 l0 -74 q-42 -18 -78 -18 q-35 0 -98 34 q-63 34 -102 34 q-60 0 -74 -23 l0 75 q33 14 74 14 q39 0 102.5 -32 q63.5 -32 97.5 -36 Z" /><glyph glyph-name="Odieresis" unicode="ö" d="M184 720 l460 0 q54 0 92 -38 q38 -38 38 -92 l0 -460 q0 -54 -38 -92 q-38 -38 -92 -38 l-460 0 q-54 0 -92 38 q-38 38 -38 92 l0 460 q0 54 38 92 q38 38 92 38 ZM184 108 l460 0 q9 0 15.5 6.5 q6.5 6.5 6.5 15.5 l0 460 q0 9 -6.5 15.5 q-6.5 6.5 -15.5 6.5 l-460 0 q-9 0 -15.5 -6.5 q-6.5 -6.5 -6.5 -15.5 l0 -460 q0 -9 6.5 -15.5 q6.5 -6.5 15.5 -6.5 ZM553 928 l0 -108 l-108 0 l0 108 l108 0 ZM383 928 l0 -108 l-108 0 l0 108 l108 0 Z" /><glyph glyph-name="multiply" unicode="×" d="M493 510 l0 -15 l-150 -195 l150 -195 l0 -15 l-128 0 l-92 126 l-92 -126 l-128 0 l0 15 l149 195 l-149 195 l0 15 l128 0 l92 -126 l92 126 l128 0 Z" /><glyph glyph-name="Ugrave" unicode="ù" d="M666 130 l0 590 l108 0 l0 -590 q0 -54 -38 -92 q-38 -38 -92 -38 l-460 0 q-54 0 -92 38 q-38 38 -38 92 l0 590 l108 0 l0 -590 q0 -9 6.5 -15.5 q6.5 -6.5 15.5 -6.5 l460 0 q9 0 15.5 6.5 q6.5 6.5 6.5 15.5 ZM448 982 l40 -162 l-108 0 l-40 162 l108 0 Z" /><glyph glyph-name="Uacute" unicode="ú" d="M666 130 l0 590 l108 0 l0 -590 q0 -54 -38 -92 q-38 -38 -92 -38 l-460 0 q-54 0 -92 38 q-38 38 -38 92 l0 590 l108 0 l0 -590 q0 -9 6.5 -15.5 q6.5 -6.5 15.5 -6.5 l460 0 q9 0 15.5 6.5 q6.5 6.5 6.5 15.5 ZM340 820 l40 162 l108 0 l-40 -162 l-108 0 Z" /><glyph glyph-name="Ucircumflex" unicode="û" d="M666 130 l0 590 l108 0 l0 -590 q0 -54 -38 -92 q-38 -38 -92 -38 l-460 0 q-54 0 -92 38 q-38 38 -38 92 l0 590 l108 0 l0 -590 q0 -9 6.5 -15.5 q6.5 -6.5 15.5 -6.5 l460 0 q9 0 15.5 6.5 q6.5 6.5 6.5 15.5 ZM366 819 l-74 0 l85 141 l74 0 l85 -141 l-75 0 l-47 76 l-48 -76 Z" /><glyph glyph-name="Udieresis" unicode="ü" d="M666 130 l0 590 l108 0 l0 -590 q0 -54 -38 -92 q-38 -38 -92 -38 l-460 0 q-54 0 -92 38 q-38 38 -38 92 l0 590 l108 0 l0 -590 q0 -9 6.5 -15.5 q6.5 -6.5 15.5 -6.5 l460 0 q9 0 15.5 6.5 q6.5 6.5 6.5 15.5 ZM553 928 l0 -108 l-108 0 l0 108 l108 0 ZM383 928 l0 -108 l-108 0 l0 108 l108 0 Z" /><glyph glyph-name="Yacute" unicode="ý" d="M661 720 l128 0 l-332 -450 l0 -270 l-108 0 l0 270 l-332 450 l127 0 l259 -328 l258 328 ZM329 820 l40 162 l108 0 l-40 -162 l-108 0 Z" /><glyph glyph-name="germandbls" unicode="§ß" d="M777 612 l0 -166 q0 -43 -25 -76 q25 -33 25 -76 l0 -164 q0 -54 -38 -92 q-38 -38 -92 -38 l-374 0 l0 108 l374 0 q9 0 15.5 6.5 q6.5 6.5 6.5 15.5 l0 164 q0 9 -6.5 15.5 q-6.5 6.5 -15.5 6.5 l-374 0 l0 97 l374 0 q9 0 15.5 6.5 q6.5 6.5 6.5 15.5 l0 154 q0 9 -6.5 15.5 q-6.5 6.5 -15.5 6.5 l-460 0 q-9 0 -15.5 -6.5 q-6.5 -6.5 -6.5 -15.5 l0 -589 l-108 0 l0 590 q0 54 38 92 q38 38 92 38 l460 0 q48 0 85 -31 q37 -31 45 -77 Z" /><glyph glyph-name="agrave" unicode="à" d="M512 580 q54 0 92 -38 q38 -38 38 -92 l0 -450 l-460 0 q-54 0 -92 38 q-38 38 -38 92 l0 214 l482 0 l0 106 q0 9 -6.5 15.5 q-6.5 6.5 -15.5 6.5 l-460 0 l0 108 l460 0 ZM534 108 l0 128 l-374 0 l0 -106 q0 -9 6.5 -15.5 q6.5 -6.5 15.5 -6.5 l352 0 ZM396 880 l40 -162 l-108 0 l-40 162 l108 0 Z" /><glyph glyph-name="aacute" unicode="á" d="M512 580 q54 0 92 -38 q38 -38 38 -92 l0 -450 l-460 0 q-54 0 -92 38 q-38 38 -38 92 l0 214 l482 0 l0 106 q0 9 -6.5 15.5 q-6.5 6.5 -15.5 6.5 l-460 0 l0 108 l460 0 ZM534 108 l0 128 l-374 0 l0 -106 q0 -9 6.5 -15.5 q6.5 -6.5 15.5 -6.5 l352 0 ZM288 718 l40 162 l108 0 l-40 -162 l-108 0 Z" /><glyph glyph-name="acircumflex" unicode="â" d="M512 580 q54 0 92 -38 q38 -38 38 -92 l0 -450 l-460 0 q-54 0 -92 38 q-38 38 -38 92 l0 214 l482 0 l0 106 q0 9 -6.5 15.5 q-6.5 6.5 -15.5 6.5 l-460 0 l0 108 l460 0 ZM534 108 l0 128 l-374 0 l0 -106 q0 -9 6.5 -15.5 q6.5 -6.5 15.5 -6.5 l352 0 ZM314 718 l-74 0 l85 141 l74 0 l85 -141 l-75 0 l-47 76 l-48 -76 Z" /><glyph glyph-name="atilde" unicode="ã" d="M512 580 q54 0 92 -38 q38 -38 38 -92 l0 -450 l-460 0 q-54 0 -92 38 q-38 38 -38 92 l0 214 l482 0 l0 106 q0 9 -6.5 15.5 q-6.5 6.5 -15.5 6.5 l-460 0 l0 108 l460 0 ZM534 108 l0 128 l-374 0 l0 -106 q0 -9 6.5 -15.5 q6.5 -6.5 15.5 -6.5 l352 0 ZM460 787 q39 0 78 26 l0 -74 q-42 -18 -78 -18 q-35 0 -98 34 q-63 34 -102 34 q-60 0 -74 -23 l0 75 q33 14 74 14 q39 0 102.5 -32 q63.5 -32 97.5 -36 Z" /><glyph glyph-name="adieresis" unicode="ä" d="M512 580 q54 0 92 -38 q38 -38 38 -92 l0 -450 l-460 0 q-54 0 -92 38 q-38 38 -38 92 l0 214 l482 0 l0 106 q0 9 -6.5 15.5 q-6.5 6.5 -15.5 6.5 l-460 0 l0 108 l460 0 ZM534 108 l0 128 l-374 0 l0 -106 q0 -9 6.5 -15.5 q6.5 -6.5 15.5 -6.5 l352 0 ZM501 826 l0 -108 l-108 0 l0 108 l108 0 ZM331 826 l0 -108 l-108 0 l0 108 l108 0 Z" /><glyph glyph-name="aring" unicode="å" d="M512 580 q54 0 92 -38 q38 -38 38 -92 l0 -450 l-460 0 q-54 0 -92 38 q-38 38 -38 92 l0 214 l482 0 l0 106 q0 9 -6.5 15.5 q-6.5 6.5 -15.5 6.5 l-460 0 l0 108 l460 0 ZM534 108 l0 128 l-374 0 l0 -106 q0 -9 6.5 -15.5 q6.5 -6.5 15.5 -6.5 l352 0 ZM334 878 l56 0 q22 0 38 -15.5 q16 -15.5 16 -37.5 l0 -54 q0 -22 -16 -37.5 q-16 -15.5 -38 -15.5 l-56 0 q-22 0 -38 15.5 q-16 15.5 -16 37.5 l0 54 q0 22 16 37.5 q16 15.5 38 15.5 ZM329 758 l66 0 q9 0 9 10 l0 60 q0 10 -9 10 l-66 0 q-9 0 -9 -10 l0 -60 q0 -10 9 -10 Z" /><glyph glyph-name="ae" unicode="¾æ" d="M995 580 q54 0 92 -38 q38 -38 38 -92 l0 -214 l-482 0 l0 -109 q2 -19 22 -19 l460 0 l0 -108 l-942 0 q-54 0 -92 38 q-38 38 -38 92 l0 214 l482 0 l0 106 q0 9 -6.5 15.5 q-6.5 6.5 -15.5 6.5 l-460 0 l0 108 l942 0 ZM535 108 l0 128 l-374 0 l0 -106 q0 -9 6.5 -15.5 q6.5 -6.5 15.5 -6.5 l352 0 ZM643 344 l374 0 l0 106 q0 9 -6.5 15.5 q-6.5 6.5 -15.5 6.5 l-330 0 q-9 0 -15.5 -6.5 q-6.5 -6.5 -6.5 -15.5 l0 -106 Z" /><glyph glyph-name="ccedilla" unicode="ç" d="M181 108 l460 0 l0 -108 l-460 0 q-54 0 -92 38 q-38 38 -38 92 l0 320 q0 54 38 92 q38 38 92 38 l458 0 l0 -108 l-458 0 q-9 0 -15.5 -6.5 q-6.5 -6.5 -6.5 -15.5 l0 -320 q0 -9 6.5 -15.5 q6.5 -6.5 15.5 -6.5 ZM272 -162 l40 162 l108 0 l-40 -162 l-108 0 Z" /><glyph glyph-name="egrave" unicode="è" d="M511 580 q54 0 92 -38 q38 -38 38 -92 l0 -214 l-482 0 l0 -106 q0 -9 6.5 -15.5 q6.5 -6.5 15.5 -6.5 l460 0 l0 -108 l-460 0 q-54 0 -92 38 q-38 38 -38 92 l0 320 q0 54 38 92 q38 38 92 38 l330 0 ZM159 344 l374 0 l0 106 q0 9 -6.5 15.5 q-6.5 6.5 -15.5 6.5 l-330 0 q-9 0 -15.5 -6.5 q-6.5 -6.5 -6.5 -15.5 l0 -106 ZM353 880 l40 -162 l-108 0 l-40 162 l108 0 Z" /><glyph glyph-name="eacute" unicode="é" d="M511 580 q54 0 92 -38 q38 -38 38 -92 l0 -214 l-482 0 l0 -106 q0 -9 6.5 -15.5 q6.5 -6.5 15.5 -6.5 l460 0 l0 -108 l-460 0 q-54 0 -92 38 q-38 38 -38 92 l0 320 q0 54 38 92 q38 38 92 38 l330 0 ZM159 344 l374 0 l0 106 q0 9 -6.5 15.5 q-6.5 6.5 -15.5 6.5 l-330 0 q-9 0 -15.5 -6.5 q-6.5 -6.5 -6.5 -15.5 l0 -106 ZM245 719 l40 162 l108 0 l-40 -162 l-108 0 Z" /><glyph glyph-name="ecircumflex" unicode="ê" d="M511 580 q54 0 92 -38 q38 -38 38 -92 l0 -214 l-482 0 l0 -106 q0 -9 6.5 -15.5 q6.5 -6.5 15.5 -6.5 l460 0 l0 -108 l-460 0 q-54 0 -92 38 q-38 38 -38 92 l0 320 q0 54 38 92 q38 38 92 38 l330 0 ZM159 344 l374 0 l0 106 q0 9 -6.5 15.5 q-6.5 6.5 -15.5 6.5 l-330 0 q-9 0 -15.5 -6.5 q-6.5 -6.5 -6.5 -15.5 l0 -106 ZM271 718 l-74 0 l85 141 l74 0 l85 -141 l-75 0 l-47 76 l-48 -76 Z" /><glyph glyph-name="edieresis" unicode="ë" d="M511 580 q54 0 92 -38 q38 -38 38 -92 l0 -214 l-482 0 l0 -106 q0 -9 6.5 -15.5 q6.5 -6.5 15.5 -6.5 l460 0 l0 -108 l-460 0 q-54 0 -92 38 q-38 38 -38 92 l0 320 q0 54 38 92 q38 38 92 38 l330 0 ZM159 344 l374 0 l0 106 q0 9 -6.5 15.5 q-6.5 6.5 -15.5 6.5 l-330 0 q-9 0 -15.5 -6.5 q-6.5 -6.5 -6.5 -15.5 l0 -106 ZM458 826 l0 -108 l-108 0 l0 108 l108 0 ZM288 826 l0 -108 l-108 0 l0 108 l108 0 Z" /><glyph glyph-name="igrave" unicode="ì" d="M56 0 l0 580 l108 0 l0 -580 l-108 0 ZM124 881 l40 -162 l-108 0 l-40 162 l108 0 Z" /><glyph glyph-name="iacute" unicode="í" d="M51 0 l0 580 l108 0 l0 -580 l-108 0 ZM49 718 l40 162 l108 0 l-40 -162 l-108 0 Z" /><glyph glyph-name="icircumflex" unicode="î" d="M51 0 l0 580 l108 0 l0 -580 l-108 0 ZM59 718 l-74 0 l85 141 l74 0 l85 -141 l-75 0 l-47 76 l-48 -76 Z" /><glyph glyph-name="idieresis" unicode="ï" d="M55 0 l0 580 l108 0 l0 -580 l-108 0 ZM246 828 l0 -108 l-108 0 l0 108 l108 0 ZM76 828 l0 -108 l-108 0 l0 108 l108 0 Z" /><glyph glyph-name="ntilde" unicode="ñ" d="M514 580 q54 0 92 -38 q38 -38 38 -92 l0 -450 l-108 0 l0 450 q0 9 -6.5 15.5 q-6.5 6.5 -15.5 6.5 l-330 0 q-9 0 -15.5 -6.5 q-6.5 -6.5 -6.5 -15.5 l0 -450 l-108 0 l0 580 l460 0 ZM452 786 q39 0 78 26 l0 -74 q-42 -18 -78 -18 q-35 0 -98 34 q-63 34 -102 34 q-60 0 -74 -23 l0 75 q33 14 74 14 q39 0 102.5 -32 q63.5 -32 97.5 -36 Z" /><glyph glyph-name="ograve" unicode="ò" d="M181 580 l330 0 q54 0 92 -38 q38 -38 38 -92 l0 -320 q0 -54 -38 -92 q-38 -38 -92 -38 l-330 0 q-54 0 -92 38 q-38 38 -38 92 l0 320 q0 54 38 92 q38 38 92 38 ZM511 472 l-330 0 q-9 0 -15.5 -6.5 q-6.5 -6.5 -6.5 -15.5 l0 -320 q0 -9 6.5 -15.5 q6.5 -6.5 15.5 -6.5 l330 0 q9 0 15.5 6.5 q6.5 6.5 6.5 15.5 l0 320 q0 9 -6.5 15.5 q-6.5 6.5 -15.5 6.5 ZM380 881 l40 -162 l-108 0 l-40 162 l108 0 Z" /><glyph glyph-name="oacute" unicode="ó" d="M181 580 l330 0 q54 0 92 -38 q38 -38 38 -92 l0 -320 q0 -54 -38 -92 q-38 -38 -92 -38 l-330 0 q-54 0 -92 38 q-38 38 -38 92 l0 320 q0 54 38 92 q38 38 92 38 ZM511 472 l-330 0 q-9 0 -15.5 -6.5 q-6.5 -6.5 -6.5 -15.5 l0 -320 q0 -9 6.5 -15.5 q6.5 -6.5 15.5 -6.5 l330 0 q9 0 15.5 6.5 q6.5 6.5 6.5 15.5 l0 320 q0 9 -6.5 15.5 q-6.5 6.5 -15.5 6.5 ZM272 719 l40 162 l108 0 l-40 -162 l-108 0 Z" /><glyph glyph-name="ocircumflex" unicode="ô" d="M181 580 l330 0 q54 0 92 -38 q38 -38 38 -92 l0 -320 q0 -54 -38 -92 q-38 -38 -92 -38 l-330 0 q-54 0 -92 38 q-38 38 -38 92 l0 320 q0 54 38 92 q38 38 92 38 ZM511 472 l-330 0 q-9 0 -15.5 -6.5 q-6.5 -6.5 -6.5 -15.5 l0 -320 q0 -9 6.5 -15.5 q6.5 -6.5 15.5 -6.5 l330 0 q9 0 15.5 6.5 q6.5 6.5 6.5 15.5 l0 320 q0 9 -6.5 15.5 q-6.5 6.5 -15.5 6.5 ZM298 718 l-74 0 l85 141 l74 0 l85 -141 l-75 0 l-47 76 l-48 -76 Z" /><glyph glyph-name="otilde" unicode="õ" d="M181 580 l330 0 q54 0 92 -38 q38 -38 38 -92 l0 -320 q0 -54 -38 -92 q-38 -38 -92 -38 l-330 0 q-54 0 -92 38 q-38 38 -38 92 l0 320 q0 54 38 92 q38 38 92 38 ZM511 472 l-330 0 q-9 0 -15.5 -6.5 q-6.5 -6.5 -6.5 -15.5 l0 -320 q0 -9 6.5 -15.5 q6.5 -6.5 15.5 -6.5 l330 0 q9 0 15.5 6.5 q6.5 6.5 6.5 15.5 l0 320 q0 9 -6.5 15.5 q-6.5 6.5 -15.5 6.5 ZM444 786 q39 0 78 26 l0 -74 q-42 -18 -78 -18 q-35 0 -98 34 q-63 34 -102 34 q-60 0 -74 -23 l0 75 q33 14 74 14 q39 0 102.5 -32 q63.5 -32 97.5 -36 Z" /><glyph glyph-name="odieresis" unicode="ö" d="M181 580 l330 0 q54 0 92 -38 q38 -38 38 -92 l0 -320 q0 -54 -38 -92 q-38 -38 -92 -38 l-330 0 q-54 0 -92 38 q-38 38 -38 92 l0 320 q0 54 38 92 q38 38 92 38 ZM511 472 l-330 0 q-9 0 -15.5 -6.5 q-6.5 -6.5 -6.5 -15.5 l0 -320 q0 -9 6.5 -15.5 q6.5 -6.5 15.5 -6.5 l330 0 q9 0 15.5 6.5 q6.5 6.5 6.5 15.5 l0 320 q0 9 -6.5 15.5 q-6.5 6.5 -15.5 6.5 ZM485 828 l0 -108 l-108 0 l0 108 l108 0 ZM315 828 l0 -108 l-108 0 l0 108 l108 0 Z" /><glyph glyph-name="divide" unicode="÷" d="M498 350 l0 -108 l-480 0 l0 108 l480 0 ZM201 108 l108 0 l0 -108 l-108 0 l0 108 ZM309 588 l0 -108 l-108 0 l0 108 l108 0 Z" /><glyph glyph-name="ugrave" unicode="ù" d="M535 580 l108 0 l0 -450 q0 -54 -38 -92 q-38 -38 -92 -38 l-330 0 q-54 0 -92 38 q-38 38 -38 92 l0 450 l108 0 l0 -450 q0 -9 6.5 -15.5 q6.5 -6.5 15.5 -6.5 l330 0 q9 0 15.5 6.5 q6.5 6.5 6.5 15.5 l0 450 ZM381 881 l40 -162 l-108 0 l-40 162 l108 0 Z" /><glyph glyph-name="uacute" unicode="ú" d="M535 580 l108 0 l0 -450 q0 -54 -38 -92 q-38 -38 -92 -38 l-330 0 q-54 0 -92 38 q-38 38 -38 92 l0 450 l108 0 l0 -450 q0 -9 6.5 -15.5 q6.5 -6.5 15.5 -6.5 l330 0 q9 0 15.5 6.5 q6.5 6.5 6.5 15.5 l0 450 ZM273 719 l40 162 l108 0 l-40 -162 l-108 0 Z" /><glyph glyph-name="ucircumflex" unicode="û" d="M535 580 l108 0 l0 -450 q0 -54 -38 -92 q-38 -38 -92 -38 l-330 0 q-54 0 -92 38 q-38 38 -38 92 l0 450 l108 0 l0 -450 q0 -9 6.5 -15.5 q6.5 -6.5 15.5 -6.5 l330 0 q9 0 15.5 6.5 q6.5 6.5 6.5 15.5 l0 450 ZM299 719 l-74 0 l85 141 l74 0 l85 -141 l-75 0 l-47 76 l-48 -76 Z" /><glyph glyph-name="udieresis" unicode="ü" d="M535 580 l108 0 l0 -450 q0 -54 -38 -92 q-38 -38 -92 -38 l-330 0 q-54 0 -92 38 q-38 38 -38 92 l0 450 l108 0 l0 -450 q0 -9 6.5 -15.5 q6.5 -6.5 15.5 -6.5 l330 0 q9 0 15.5 6.5 q6.5 6.5 6.5 15.5 l0 450 ZM486 826 l0 -108 l-108 0 l0 108 l108 0 ZM316 826 l0 -108 l-108 0 l0 108 l108 0 Z" /><glyph glyph-name="yacute" unicode="ý" d="M632 222 l0 -2 l0 -320 q0 -54 -38 -92 q-38 -38 -92 -38 l-358 0 l0 108 l358 0 q9 0 15.5 6.5 q6.5 6.5 6.5 15.5 l0 100 l-352 0 q-54 0 -92 38 q-38 38 -38 92 l0 448 l108 0 l0 -448 q0 -9 6.5 -15.5 q6.5 -6.5 15.5 -6.5 l330 0 q9 0 15.5 6.5 q6.5 6.5 6.5 15.5 l0 448 l108 0 l0 -356 ZM270 719 l40 162 l108 0 l-40 -162 l-108 0 Z" /><glyph glyph-name="ydieresis" unicode="øÿ" d="M632 222 l0 -2 l0 -320 q0 -54 -38 -92 q-38 -38 -92 -38 l-358 0 l0 108 l358 0 q9 0 15.5 6.5 q6.5 6.5 6.5 15.5 l0 100 l-352 0 q-54 0 -92 38 q-38 38 -38 92 l0 448 l108 0 l0 -448 q0 -9 6.5 -15.5 q6.5 -6.5 15.5 -6.5 l330 0 q9 0 15.5 6.5 q6.5 6.5 6.5 15.5 l0 448 l108 0 l0 -356 ZM483 828 l0 -108 l-108 0 l0 108 l108 0 ZM313 828 l0 -108 l-108 0 l0 108 l108 0 Z" /><glyph glyph-name="dotlessi" unicode="&#x131;" d="M52 0 l0 580 l108 0 l0 -580 l-108 0 Z" /><glyph glyph-name="OE" unicode="&#x152;" d="M773 612 l0 -198 l444 0 l0 -108 l-444 0 l0 -198 l552 0 l0 -108 l-1142 0 q-54 0 -92 38 q-38 38 -38 92 l0 460 q0 54 38 92 q38 38 92 38 l1142 0 l0 -108 l-552 0 ZM643 108 q9 0 15.5 6.5 q6.5 6.5 6.5 15.5 l0 460 q0 9 -6.5 15.5 q-6.5 6.5 -15.5 6.5 l-460 0 q-9 0 -15.5 -6.5 q-6.5 -6.5 -6.5 -15.5 l0 -460 q0 -9 6.5 -15.5 q6.5 -6.5 15.5 -6.5 l460 0 Z" /><glyph glyph-name="oe" unicode="&#x153;" d="M1124 236 l-482 0 l0 -106 q0 -9 6.5 -15.5 q6.5 -6.5 15.5 -6.5 l460 0 l0 -108 l-942 0 q-54 0 -92 38 q-38 38 -38 92 l0 320 q0 54 38 92 q38 38 92 38 l812 0 q54 0 92 -38 q38 -38 38 -92 l0 -214 ZM664 472 q-9 0 -15.5 -6.5 q-6.5 -6.5 -6.5 -15.5 l0 -106 l374 0 l0 106 q0 9 -6.5 15.5 q-6.5 6.5 -15.5 6.5 l-330 0 ZM512 108 q9 0 15.5 6.5 q6.5 6.5 6.5 15.5 l0 320 q0 9 -6.5 15.5 q-6.5 6.5 -15.5 6.5 l-330 0 q-9 0 -15.5 -6.5 q-6.5 -6.5 -6.5 -15.5 l0 -320 q0 -9 6.5 -15.5 q6.5 -6.5 15.5 -6.5 l330 0 Z" /><glyph glyph-name="Scaron" unicode="&#x160;" d="M771 590 l0 -42 l-108 0 l0 42 q0 9 -6.5 15.5 q-6.5 6.5 -15.5 6.5 l-460 0 q-9 0 -15.5 -6.5 q-6.5 -6.5 -6.5 -15.5 l0 -154 q0 -9 6.5 -15.5 q6.5 -6.5 15.5 -6.5 l460 0 q54 0 92 -38 q38 -38 38 -92 l0 -154 q0 -54 -38 -92 q-38 -38 -92 -38 l-460 0 q-54 0 -92 38 q-38 38 -38 92 l0 42 l108 0 l0 -42 q0 -9 6.5 -15.5 q6.5 -6.5 15.5 -6.5 l460 0 q9 0 15.5 6.5 q6.5 6.5 6.5 15.5 l0 154 q0 9 -6.5 15.5 q-6.5 6.5 -15.5 6.5 l-460 0 q-54 0 -92 38 q-38 38 -38 92 l0 154 q0 54 38 92 q38 38 92 38 l460 0 q54 0 92 -38 q38 -38 38 -92 ZM289 960 l74 0 l48 -76 l47 76 l75 0 l-85 -141 l-74 0 l-85 141 Z" /><glyph glyph-name="scaron" unicode="&#x161;" d="M638 450 l0 -22 l-108 0 l0 22 q0 9 -6.5 15.5 q-6.5 6.5 -15.5 6.5 l-330 0 q-9 0 -15.5 -6.5 q-6.5 -6.5 -6.5 -15.5 l0 -84 q0 -9 6.5 -15.5 q6.5 -6.5 15.5 -6.5 l330 0 q54 0 92 -38 q38 -38 38 -92 l0 -84 q0 -54 -38 -92 q-38 -38 -92 -38 l-330 0 q-54 0 -92 38 q-38 38 -38 92 l0 22 l108 0 l0 -22 q0 -9 6.5 -15.5 q6.5 -6.5 15.5 -6.5 l330 0 q9 0 15.5 6.5 q6.5 6.5 6.5 15.5 l0 84 q0 9 -6.5 15.5 q-6.5 6.5 -15.5 6.5 l-330 0 q-54 0 -92 38 q-38 38 -38 92 l0 84 q0 54 38 92 q38 38 92 38 l330 0 q54 0 92 -38 q38 -38 38 -92 ZM221 859 l74 0 l48 -76 l47 76 l75 0 l-85 -141 l-74 0 l-85 141 Z" /><glyph glyph-name="Ydieresis" unicode="&#x178;" d="M661 720 l128 0 l-332 -450 l0 -270 l-108 0 l0 270 l-332 450 l127 0 l259 -328 l258 328 ZM542 928 l0 -108 l-108 0 l0 108 l108 0 ZM372 928 l0 -108 l-108 0 l0 108 l108 0 Z" /><glyph glyph-name="Zcaron" unicode="&#x17d;" d="M51 612 l0 108 l720 0 l0 -128 l-576 -484 l576 0 l0 -108 l-720 0 l0 128 l576 484 l-576 0 ZM288 960 l74 0 l48 -76 l47 76 l75 0 l-85 -141 l-74 0 l-85 141 Z" /><glyph glyph-name="zcaron" unicode="&#x17e;" d="M54 472 l0 108 l590 0 l0 -128 l-446 -344 l446 0 l0 -108 l-590 0 l0 128 l446 344 l-446 0 ZM227 862 l74 0 l48 -76 l47 76 l75 0 l-85 -141 l-74 0 l-85 141 Z" /><glyph glyph-name="circumflex" unicode="&#x2c6;" d="M102 826 l-74 0 l85 141 l74 0 l85 -141 l-75 0 l-47 76 l-48 -76 Z" /><glyph glyph-name="caron" unicode="&#x2c7;" d="M27 967 l74 0 l48 -76 l47 76 l75 0 l-85 -141 l-74 0 l-85 141 Z" /><glyph glyph-name="breve" unicode="&#x2d8;" d="M195 911 l51 0 l0 -7 q0 -32 -22 -54.5 q-22 -22.5 -55 -22.5 l-52 0 q-33 0 -55 22.5 q-22 22.5 -22 54.5 l0 7 l51 0 l0 -18 q0 -14 14 -14 l76 0 q14 0 14 14 l0 18 Z" /><glyph glyph-name="dotaccent" unicode="&#x2d9;" d="M99 968 l36 0 q22 0 38 -15.5 q16 -15.5 16 -37.5 l0 -34 q0 -22 -16 -37.5 q-16 -15.5 -38 -15.5 l-36 0 q-22 0 -38 15.5 q-16 15.5 -16 37.5 l0 34 q0 22 16 37.5 q16 15.5 38 15.5 Z" /><glyph glyph-name="ring" unicode="&#x2da;" d="M89 988 l56 0 q22 0 38 -15.5 q16 -15.5 16 -37.5 l0 -54 q0 -22 -16 -37.5 q-16 -15.5 -38 -15.5 l-56 0 q-22 0 -38 15.5 q-16 15.5 -16 37.5 l0 54 q0 22 16 37.5 q16 15.5 38 15.5 ZM84 868 l66 0 q9 0 9 10 l0 60 q0 10 -9 10 l-66 0 q-9 0 -9 -10 l0 -60 q0 -10 9 -10 Z" /><glyph glyph-name="tilde" unicode="&#x2dc;" d="M297 897 q39 0 78 26 l0 -74 q-42 -18 -78 -18 q-35 0 -98 34 q-63 34 -102 34 q-60 0 -74 -23 l0 75 q33 14 74 14 q39 0 102.5 -32 q63.5 -32 97.5 -36 Z" /><glyph glyph-name="endash" unicode="ð&#x2013;" d="M654 349 l0 -108 l-600 0 l0 108 l600 0 Z" /><glyph glyph-name="emdash" unicode="&#x2014;" d="M768 349 l0 -108 l-714 0 l0 108 l714 0 Z" /><glyph glyph-name="quoteleft" unicode="&#x2018;" d="M142 484 l-108 0 l0 108 q0 48 31 84 q31 36 77 44 l0 -236 Z" /><glyph glyph-name="quoteright" unicode="&#x2019;" d="M54 720 l108 0 l0 -108 q0 -48 -31 -84 q-31 -36 -77 -44 l0 236 Z" /><glyph glyph-name="quotedblleft" unicode="&#x201c;" d="M154 484 l-108 0 l0 108 q0 48 31 84 q31 36 77 44 l0 -236 ZM325 484 l-108 0 l0 108 q0 48 31 84 q31 36 77 44 l0 -236 Z" /><glyph glyph-name="quotedblright" unicode="&#x201d;" d="M225 720 l108 0 l0 -108 q0 -48 -31 -84 q-31 -36 -77 -44 l0 236 ZM54 720 l108 0 l0 -108 q0 -48 -31 -84 q-31 -36 -77 -44 l0 236 Z" /><glyph glyph-name="bullet" unicode="¥&#x2022;" d="M173 412 l23 0 q43 0 43 -42 l0 -20 q0 -42 -43 -42 l-23 0 q-42 0 -42 42 l0 20 q0 42 42 42 Z" /><glyph glyph-name="ellipsis" unicode="&#x2026;" d="M162 108 l0 -108 l-108 0 l0 108 l108 0 ZM520 108 l0 -108 l-108 0 l0 108 l108 0 ZM341 108 l0 -108 l-108 0 l0 108 l108 0 Z" /><glyph glyph-name="Euro" unicode="&#x20ac;" d="M265 108 l488 0 l0 -108 l-488 0 q-54 0 -92 38 q-38 38 -38 92 l0 88 l-100 0 l0 108 l100 0 l0 68 l-100 0 l0 108 l100 0 l0 88 q0 54 38 92 q38 38 92 38 l488 0 l0 -108 l-488 0 q-9 0 -15.5 -6.5 q-6.5 -6.5 -6.5 -15.5 l0 -88 l402 0 l0 -108 l-402 0 l0 -68 l402 0 l0 -108 l-402 0 l0 -88 q0 -9 6.5 -15.5 q6.5 -6.5 15.5 -6.5 Z" /><glyph glyph-name="minus" unicode="&#x2212;" d="M459 350 l0 -108 l-400 0 l0 108 l400 0 Z" /><glyph glyph-name="uniE000" unicode="&#xe000;" d="" /><glyph glyph-name="seven.alt" unicode="&#xe002;" d="M46 720 l592 0 l128 0 l0 -15 l-592 -705 l-128 0 l0 15 l501 597 l-501 0 l0 108 Z" /><glyph glyph-name="nine.alt" unicode="&#xe003;" d="M142 718 l460 0 q54 0 92 -38 q38 -38 38 -92 l0 -588 l-108 0 l0 272 q0 9 -6.5 15.5 q-6.5 6.5 -15.5 6.5 l-460 0 q-54 0 -92 38 q-38 38 -38 92 l0 164 q0 54 38 92 q38 38 92 38 ZM437 402 l187 0 l0 186 q0 9 -6.5 15.5 q-6.5 6.5 -15.5 6.5 l-460 0 q-9 0 -15.5 -6.5 q-6.5 -6.5 -6.5 -15.5 l0 -164 q0 -9 6.5 -15.5 q6.5 -6.5 15.5 -6.5 l295 0 Z" /><glyph glyph-name="two.alt" unicode="&#xe005;" d="M767 475 l-108 -56 l-502 -261 l0 -50 l610 0 l0 -108 l-590 0 q-46 0 -81.5 29 q-35.5 29 -45.5 73 l-1 122 l610 317 l0 71 l-480 0 q-9 0 -15.5 -6.5 q-6.5 -6.5 -6.5 -15.5 l0 -55 l-108 0 l0 55 q0 54 38 92 q38 38 92 38 l460 0 q48 0 84 -31 q36 -31 44 -77 l0 -137 Z" /><glyph glyph-name="question.alt" unicode="&#xe006;" d="M435 384 l-7 0 l7 0 ZM155 720 l360 0 q54 0 92 -38 q38 -38 38 -92 l0 -184 q0 -54 -38 -92 q-38 -38 -92 -38 l-190 0 q-9 0 -15.5 -6.5 q-6.5 -6.5 -6.5 -15.5 l0 -103 l-108 0 l0 103 q0 54 38 92 q38 38 92 38 l190 0 q9 0 15.5 6.5 q6.5 6.5 6.5 15.5 l0 184 q0 9 -6.5 15.5 q-6.5 6.5 -15.5 6.5 l-380 0 l0 -108 l-108 0 l0 108 q8 46 44 77 q36 31 84 31 ZM303 0 l-108 0 l0 108 l108 0 l0 -108 Z" /><glyph glyph-name="four.alt" unicode="&#xe007;" d="M593 291 l106 0 l0 -108 l-106 0 l0 -183 l-108 0 l0 183 l-476 0 l0 108 l366 429 l108 0 l0 -50 l-343 -379 l345 0 l0 149 l108 0 l0 -149 Z" /><glyph glyph-name="W.alt2" unicode="&#xe008;" d="M0 720 l128 0 l484 -576 l0 284 l-233 277 l0 15 l128 0 l484 -576 l0 576 l108 0 l0 -720 l-128 0 l-251 299 l0 -299 l-128 0 l-592 705 l0 15 Z" /><glyph glyph-name="W.alt" unicode="&#xe009;" d="M1018 720 l128 0 l0 -15 l-592 -705 l-128 0 l0 299 l-251 -299 l-128 0 l0 720 l108 0 l0 -576 l484 576 l128 0 l0 -15 l-233 -277 l0 -284 l484 576 Z" /><glyph glyph-name="V.alt" unicode="&#xe00a;" d="M54 720 l108 0 l0 -576 l484 576 l128 0 l0 -15 l-592 -705 l-128 0 l0 720 Z" /><glyph glyph-name="A.alt" unicode="&#xe00b;" d="M0 0 l0 15 l592 705 l128 0 l0 -720 l-108 0 l0 192 l-323 0 l-161 -192 l-128 0 ZM612 576 l-232 -276 l232 0 l0 276 Z" /><glyph glyph-name="A.alt2" unicode="&#xe00c;" d="M54 720 l128 0 l592 -705 l0 -15 l-128 0 l-162 192 l-322 0 l0 -192 l-108 0 l0 720 ZM162 576 l0 -276 l232 0 l-232 276 Z" /></font>
</defs>
</svg>
